<svg width="173" height="60" viewBox="0 0 173 60" fill="none" xmlns="http://www.w3.org/2000/svg">
<path fill-rule="evenodd" clip-rule="evenodd" d="M13.0167 3.91296H159.728C162.989 3.91296 164.169 4.27818 165.361 4.95644C166.538 5.62374 167.5 6.65546 168.122 7.91729C168.755 9.19555 169.096 10.4608 169.096 13.9434V46.0563C169.096 49.5388 168.755 50.8041 168.122 52.0823C167.5 53.3442 166.538 54.3759 165.361 55.0432C164.169 55.7214 162.989 56.0866 159.741 56.0866H13.0045C9.75644 56.0866 8.57642 55.7214 7.38424 55.0432C6.20737 54.3759 5.24511 53.3442 4.62275 52.0823C3.99016 50.8041 3.64954 49.5388 3.64954 46.0563V13.9434C3.64954 10.4608 3.99016 9.19555 4.62275 7.91729C5.24511 6.65546 6.20737 5.62374 7.38424 4.95644C8.57642 4.27818 9.75644 3.91296 13.0045 3.91296H13.0167Z" fill="#293145"/>
<path fill-rule="evenodd" clip-rule="evenodd" d="M22.8215 42.7432L22.9674 42.7823C22.9181 42.7726 22.8693 42.7595 22.8215 42.7432ZM43.6239 27.8737C44.1713 28.1998 44.5119 28.6302 44.6214 29.0737L44.6457 29.2433C44.5971 29.7389 44.2443 30.2346 43.6117 30.6128L24.3908 42.3128C24.0015 42.5606 23.6244 42.665 23.2959 42.665C22.9553 42.665 22.6633 42.5476 22.42 42.3258L22.347 42.2476C22.0282 41.8352 21.8673 41.3084 21.8969 40.7737V17.7129C21.8969 17.0086 22.0915 16.4738 22.42 16.1477C22.6633 15.9259 22.9553 15.8086 23.2959 15.8086C23.6244 15.8086 24.0015 15.9259 24.3908 16.1607L43.6117 27.8737H43.6239ZM23.2837 15.652H23.454H23.2837ZM134.96 42.2084H137.222V25.9042H134.96V42.2084ZM155.397 31.7737L152.794 38.8432H152.721L150.02 31.7737H147.575L151.626 41.6606L149.315 47.1519H151.687L157.928 31.7737H155.397ZM142.526 40.3563C141.784 40.3563 140.75 39.965 140.75 38.9737C140.75 37.7085 142.04 37.2259 143.147 37.2259C144.157 37.2259 144.619 37.4606 145.227 37.7737C145.145 38.4817 144.826 39.1336 144.329 39.6085C143.832 40.0835 143.192 40.3491 142.526 40.3563ZM142.806 31.4215C141.152 31.4215 139.461 32.2041 138.755 33.9128L140.763 34.8259C141.2 33.9128 142.003 33.6259 142.831 33.6259C144.011 33.6259 145.203 34.3693 145.227 35.7128V35.8824C144.496 35.4676 143.682 35.2525 142.855 35.2563C140.69 35.2563 138.475 36.5346 138.475 38.9215C138.475 41.1128 140.264 42.5215 142.247 42.5215C143.779 42.5215 144.619 41.778 145.154 40.9171H145.227V42.1824H147.417V35.9215C147.417 33.0389 145.397 31.4215 142.794 31.4215H142.806ZM128.768 33.7693H125.544V28.1607H128.768C130.471 28.1607 131.444 29.6737 131.444 30.965C131.444 32.2302 130.471 33.7563 128.768 33.7563V33.7693ZM128.719 25.9042H123.269V42.2084H125.544V36.0259H128.707C131.225 36.0259 133.695 34.0693 133.695 30.965C133.695 27.8607 131.225 25.9042 128.707 25.9042H128.719ZM99.0482 40.3563C97.4911 40.3563 96.1773 38.9476 96.1773 37.0172C96.1773 35.0606 97.4911 33.6259 99.0482 33.6259C100.605 33.6259 101.822 35.0606 101.822 37.0172C101.822 38.9476 100.605 40.3563 99.0482 40.3563ZM101.664 32.6867H101.579C101.233 32.2843 100.811 31.9656 100.341 31.7519C99.8709 31.5382 99.3639 31.4345 98.8536 31.4476C97.5144 31.5019 96.2478 32.1142 95.3231 33.1543C94.3985 34.1945 93.8888 35.5803 93.9024 37.0172C93.8921 38.4492 94.4041 39.8289 95.329 40.862C96.2539 41.8951 97.5187 42.5 98.8536 42.5476C99.3663 42.5617 99.8757 42.4559 100.346 42.2373C100.817 42.0188 101.237 41.6929 101.579 41.2824H101.664V42.078C101.664 44.2041 100.605 45.3389 98.9023 45.3389C98.3329 45.3272 97.7798 45.1335 97.3138 44.7826C96.8478 44.4317 96.4902 43.9396 96.2868 43.3693L94.316 44.2432C94.6874 45.2192 95.3226 46.0537 96.1399 46.6394C96.9572 47.2252 97.9192 47.5354 98.9023 47.5302C101.566 47.5302 103.817 45.8345 103.817 41.7519V31.7867H101.664V32.6998V32.6867ZM105.386 42.2084H107.661V25.9042H105.386V42.2084ZM111.007 36.8215C110.982 36.4181 111.033 36.0134 111.156 35.6312C111.279 35.249 111.472 34.897 111.723 34.5958C111.975 34.2945 112.28 34.0501 112.62 33.8769C112.961 33.7036 113.331 33.605 113.707 33.5867C114.62 33.5867 115.386 34.0693 115.629 34.7606L111.007 36.8345V36.8215ZM118.062 34.9824C117.637 33.7433 116.323 31.4607 113.634 31.4607C110.97 31.4607 108.756 33.6911 108.756 36.9911C108.756 40.1084 110.946 42.5476 113.89 42.5476C116.262 42.5476 117.637 40.9824 118.208 40.0824L116.444 38.8302C116.179 39.3003 115.803 39.6881 115.355 39.9557C114.908 40.2232 114.402 40.3613 113.89 40.3563C112.734 40.3563 111.907 39.7954 111.384 38.6737L118.306 35.6085L118.062 34.9824ZM62.9543 33.1563V35.5041H68.1974C68.1218 36.6067 67.7018 37.6498 67.0053 38.465C66.4781 39.0409 65.844 39.4917 65.1441 39.7883C64.4442 40.0848 63.694 40.2206 62.9421 40.1867C62.1797 40.1851 61.4252 40.0213 60.7222 39.7049C60.0192 39.3886 59.3817 38.9259 58.8466 38.3437C58.3115 37.7614 57.8893 37.0712 57.6046 36.3129C57.32 35.5546 57.1783 34.7432 57.188 33.9259C57.1737 32.7122 57.4929 31.5208 58.1058 30.5003C58.7187 29.4798 59.5982 28.6753 60.6346 28.1872C61.6711 27.699 62.8186 27.5487 63.9342 27.7551C65.0497 27.9614 66.084 28.5153 66.9079 29.3476L68.4529 27.6911C67.7279 26.9222 66.867 26.3162 65.9207 25.9086C64.9744 25.5009 63.9618 25.2999 62.9421 25.3172C60.8013 25.317 58.7464 26.2198 57.2213 27.8305C55.6962 29.4413 54.8234 31.6308 54.7915 33.9259C54.8234 36.2209 55.6962 38.4104 57.2213 40.0212C58.7464 41.632 60.8013 42.5348 62.9421 42.5345C65.3386 42.5345 67.1391 41.6997 68.5502 40.1215C69.8292 38.623 70.5104 36.6473 70.448 34.6172C70.448 34.0693 70.4115 33.5737 70.3263 33.1563H62.9421H62.9543ZM76.4211 40.3563C74.8518 40.3563 73.5014 38.9737 73.5014 36.9911C73.5014 34.9954 74.8518 33.6389 76.4211 33.6389C78.0026 33.6389 79.3407 34.9954 79.3407 36.9911C79.3407 38.9737 78.0026 40.3563 76.4211 40.3563ZM76.4211 31.4476C75.7378 31.4354 75.0592 31.5702 74.4254 31.8441C73.7916 32.118 73.2155 32.5254 72.7312 33.0423C72.2468 33.5592 71.8641 34.175 71.6057 34.8532C71.3473 35.5315 71.2183 36.2584 71.2266 36.9911C71.2167 37.7248 71.3444 38.4532 71.6021 39.1329C71.8598 39.8127 72.2423 40.4301 72.7268 40.9483C73.2113 41.4666 73.7879 41.8752 74.4226 42.1499C75.0572 42.4247 75.7368 42.5599 76.4211 42.5476C77.1054 42.5599 77.785 42.4247 78.4196 42.1499C79.0542 41.8752 79.6309 41.4666 80.1154 40.9483C80.5999 40.4301 80.9823 39.8127 81.2401 39.1329C81.4978 38.4532 81.6255 37.7248 81.6156 36.9911C81.6238 36.2584 81.4949 35.5315 81.2365 34.8532C80.978 34.175 80.5953 33.5592 80.111 33.0423C79.6266 32.5254 79.0505 32.118 78.4167 31.8441C77.7829 31.5702 77.1043 31.4354 76.4211 31.4476ZM87.759 40.3563C86.1775 40.3563 84.8394 38.9737 84.8394 36.9911C84.8394 34.9954 86.1775 33.6389 87.759 33.6389C89.3161 33.6389 90.6786 34.9954 90.6786 36.9911C90.6786 38.9737 89.3161 40.3563 87.759 40.3563ZM87.759 31.4476C87.0757 31.4354 86.3971 31.5702 85.7633 31.8441C85.1295 32.118 84.5534 32.5254 84.0691 33.0423C83.5848 33.5592 83.2021 34.175 82.9436 34.8532C82.6852 35.5315 82.5563 36.2584 82.5645 36.9911C82.5546 37.7248 82.6823 38.4532 82.94 39.1329C83.1977 39.8127 83.5802 40.4301 84.0647 40.9483C84.5492 41.4666 85.1259 41.8752 85.7605 42.1499C86.3951 42.4247 87.0747 42.5599 87.759 42.5476C88.4433 42.5599 89.1229 42.4247 89.7575 42.1499C90.3921 41.8752 90.9688 41.4666 91.4533 40.9483C91.9378 40.4301 92.3203 39.8127 92.578 39.1329C92.8357 38.4532 92.9634 37.7248 92.9535 36.9911C92.9617 36.2584 92.8328 35.5315 92.5744 34.8532C92.3159 34.175 91.9332 33.5592 91.4489 33.0423C90.9646 32.5254 90.3885 32.118 89.7547 31.8441C89.1209 31.5702 88.4422 31.4354 87.759 31.4476Z" fill="white"/>
<path fill-rule="evenodd" clip-rule="evenodd" d="M61.4947 17.126C61.4947 18.1043 61.2271 18.8869 60.6797 19.4738C60.0714 20.1651 59.2564 20.5173 58.271 20.5173C57.3221 20.5173 56.507 20.1651 55.8379 19.4608C55.5164 19.121 55.2631 18.7143 55.0937 18.2657C54.9242 17.8171 54.8422 17.336 54.8526 16.8521C54.8526 15.8086 55.181 14.9217 55.8501 14.2173C56.507 13.513 57.3099 13.1608 58.271 13.1608C58.7332 13.1608 59.1834 13.2652 59.6091 13.4608C60.0471 13.6565 60.3877 13.9173 60.6432 14.2434L60.0592 14.8565C59.8398 14.5809 59.5647 14.3626 59.2549 14.2179C58.9451 14.0733 58.6086 14.0062 58.271 14.0217C57.5776 14.0217 56.9815 14.2826 56.4705 14.8043C55.9718 15.326 55.7163 16.0043 55.7163 16.8391C55.7163 17.6739 55.9596 18.3521 56.4705 18.8738C56.9815 19.3956 57.5654 19.6565 58.271 19.6565C59.0009 19.6565 59.6091 19.3956 60.0957 18.8738C60.412 18.5217 60.6067 18.0521 60.6553 17.4391H58.271V16.5912H61.4461C61.4826 16.7739 61.4947 16.9565 61.4947 17.113" fill="white"/>
<path fill-rule="evenodd" clip-rule="evenodd" d="M61.4945 17.126H61.385C61.385 18.0912 61.1174 18.8217 60.6065 19.3956C59.9982 20.0608 59.2318 20.3999 58.2708 20.3999C57.3462 20.3999 56.5676 20.0608 55.9229 19.3825C55.6074 19.0528 55.3592 18.6565 55.1938 18.2188C55.0284 17.781 54.9494 17.3112 54.9618 16.8391C54.9618 15.8217 55.2781 14.9869 55.935 14.2956C56.2394 13.9646 56.6035 13.7037 57.0051 13.5288C57.4067 13.3538 57.8374 13.2686 58.2708 13.2782C58.7209 13.2782 59.1588 13.3695 59.5724 13.5652C59.986 13.7608 60.3023 14.0086 60.5578 14.3217L60.643 14.2434L60.5578 14.1652L59.986 14.7782L60.059 14.8565L60.1442 14.7912C59.6941 14.2043 59.0493 13.9043 58.2708 13.9043C57.5408 13.9043 56.9204 14.1782 56.3973 14.726C55.8742 15.2608 55.6066 15.9782 55.6066 16.8391C55.6066 17.6999 55.8742 18.4043 56.3973 18.9521C56.9204 19.4999 57.553 19.7738 58.2708 19.7738C59.025 19.7738 59.6697 19.4999 60.1807 18.9521C60.5213 18.5869 60.716 18.0782 60.7646 17.4521V17.3217H58.3924V16.7086H61.458V16.5912L61.3485 16.6173C61.385 16.7869 61.3972 16.9565 61.3972 17.126H61.6162C61.6162 16.9434 61.604 16.7608 61.5675 16.5782L61.5553 16.4738H58.1491V17.5565H60.643V17.4391H60.5213C60.4848 18.026 60.3023 18.4695 60.0104 18.7825C59.5359 19.2912 58.9642 19.539 58.2586 19.539C57.5895 19.539 57.0177 19.2782 56.5311 18.7825C56.0445 18.2869 55.8012 17.6478 55.8012 16.8391C55.8012 16.0304 56.0445 15.4043 56.5311 14.8825C57.0177 14.3869 57.5895 14.1391 58.2586 14.1391C58.9885 14.1391 59.5481 14.3999 59.9617 14.9347L60.0469 15.0391L60.7038 14.3217L60.7768 14.2565L60.7159 14.1652C60.4245 13.8046 60.0577 13.523 59.6454 13.3434C59.2106 13.1454 58.7431 13.0434 58.2708 13.0434C57.2975 13.0434 56.446 13.4086 55.7769 14.1391C55.4422 14.4872 55.1777 14.9053 54.9998 15.3675C54.822 15.8297 54.7345 16.3261 54.7429 16.826C54.7429 17.8956 55.0835 18.8086 55.7769 19.539C56.1022 19.8916 56.4911 20.1694 56.9199 20.3555C57.3487 20.5417 57.8083 20.6322 58.2708 20.6217C59.2805 20.6217 60.1199 20.2564 60.7524 19.539L60.6795 19.4608L60.7524 19.5521C61.3242 18.9391 61.604 18.1173 61.604 17.113H61.4945V17.126ZM66.5431 14.1782H63.5504V16.4217H66.2511V17.2565H63.5504V19.4999H66.5431V20.3608H62.711V13.3173H66.5431V14.1782Z" fill="white"/>
<path fill-rule="evenodd" clip-rule="evenodd" d="M66.5431 14.1783V14.0609H63.441V16.5391H66.1417V17.1391H63.441V19.6174H66.4336V20.2434H62.8206V13.4348H66.4336V14.1783H66.5431V14.0609V14.1913H66.6526V13.2H62.6016V20.4782H66.6526V19.3826H63.66V17.3739H66.3607V16.3043H63.66V14.2956H66.6526V14.1783H66.531H66.5431ZM70.0954 20.3608H69.256V14.1783H67.4312V13.3174H71.9323V14.1783H70.1075V20.3608" fill="white"/>
<path fill-rule="evenodd" clip-rule="evenodd" d="M70.0955 20.3608V20.2434H69.3656V14.0609H67.5408V13.4348H71.823V14.0609H69.9982V20.3608H70.0955V20.2434V20.3739H70.2172V14.2956H72.0419V13.2H67.3097V14.2956H69.1466V20.4782H70.205V20.3608H70.0955ZM75.2049 20.3608H76.0564V13.3174H75.2049V20.3608Z" fill="white"/>
<path fill-rule="evenodd" clip-rule="evenodd" d="M75.2047 20.3608H75.3142V13.4478H75.9346V20.2434H75.2047V20.3739H75.3142H75.1926V20.4782H76.1658V13.2H75.0952V20.4782H75.2047V20.3608ZM79.791 20.3608H78.9394V14.1783H77.1147V13.3174H81.6158V14.1783H79.791V20.3608Z" fill="white"/>
<path fill-rule="evenodd" clip-rule="evenodd" d="M79.7908 20.3609V20.2435H79.0609V14.0609H77.2239V13.4348H81.5061V14.0609H79.6813V20.3609H79.7908V20.2435V20.3739H79.9003V14.2957H81.725V13.2001H77.0049V14.2957H78.8297V20.4783H79.9003V20.3609H79.7786H79.7908ZM85.9707 18.8609C86.4573 19.3826 87.0655 19.6435 87.7589 19.6435C88.4645 19.6435 89.0606 19.3826 89.5472 18.8609C90.0338 18.3392 90.2771 17.6609 90.2771 16.8392C90.2771 16.0174 90.0338 15.3522 89.5472 14.8174C89.0606 14.2957 88.4645 14.0348 87.7589 14.0348C87.0534 14.0348 86.4573 14.2957 85.9707 14.8174C85.4841 15.3392 85.2408 16.0174 85.2408 16.8392C85.2408 17.6609 85.4841 18.3392 85.9707 18.8609ZM90.1677 19.4479C89.5229 20.1652 88.72 20.5174 87.7589 20.5174C86.7979 20.5174 85.995 20.1652 85.3502 19.4479C85.0332 19.1052 84.7837 18.6977 84.6165 18.2495C84.4493 17.8014 84.3679 17.3217 84.377 16.8392C84.3673 16.3577 84.4477 15.879 84.6136 15.4314C84.7794 14.9838 85.0274 14.5765 85.3427 14.2335C85.6581 13.8905 86.0344 13.6189 86.4495 13.4346C86.8645 13.2504 87.3098 13.1573 87.7589 13.1609C88.2081 13.1573 88.6534 13.2504 89.0684 13.4346C89.4835 13.6189 89.8598 13.8905 90.1751 14.2335C90.4905 14.5765 90.7384 14.9838 90.9043 15.4314C91.0702 15.879 91.1506 16.3577 91.1409 16.8392C91.1409 17.8696 90.8124 18.7435 90.1677 19.4479Z" fill="white"/>
<path fill-rule="evenodd" clip-rule="evenodd" d="M85.9708 18.8608L85.8978 18.939C86.4088 19.4869 87.0292 19.7738 87.7591 19.7738C88.489 19.7738 89.1216 19.4869 89.6204 18.939C90.1313 18.3912 90.3868 17.6869 90.3868 16.8521C90.3868 15.9912 90.1313 15.2869 89.6204 14.7391C89.3805 14.4699 89.0914 14.2567 88.7711 14.1131C88.4508 13.9694 88.1062 13.8983 87.7591 13.9043C87.0292 13.9043 86.4088 14.1912 85.8978 14.7391C85.6444 15.0155 85.4459 15.344 85.3142 15.705C85.1824 16.0659 85.1203 16.4517 85.1314 16.8391C85.1314 17.6869 85.3869 18.4043 85.8978 18.939L86.056 18.7825C85.8212 18.5271 85.6375 18.223 85.5162 17.8888C85.3949 17.5547 85.3385 17.1974 85.3504 16.8391C85.3504 16.0565 85.5937 15.4043 86.056 14.8956C86.2763 14.651 86.5411 14.4575 86.8341 14.3274C87.1271 14.1972 87.442 14.1331 87.7591 14.1391C88.4403 14.1391 88.9999 14.3999 89.4622 14.8956C89.9367 15.4173 90.1678 16.0434 90.1678 16.8521C90.1678 17.6347 89.9245 18.2738 89.4622 18.7825C88.9999 19.2912 88.4403 19.539 87.7591 19.539C87.442 19.545 87.1271 19.4809 86.8341 19.3507C86.5411 19.2206 86.2763 19.0272 86.056 18.7825L85.9708 18.8608ZM90.1678 19.4477L90.0948 19.3695C89.4622 20.0608 88.6958 20.3999 87.7591 20.413C87.3253 20.4148 86.8956 20.3235 86.4952 20.1444C86.0949 19.9653 85.7321 19.702 85.4282 19.3701C85.1243 19.0382 84.8855 18.6444 84.7259 18.2119C84.5663 17.7795 84.4891 17.3171 84.4988 16.8521C84.4874 16.386 84.5634 15.9223 84.7223 15.4883C84.8812 15.0543 85.1197 14.6589 85.4238 14.3256C85.7278 13.9923 86.0912 13.7279 86.4924 13.5479C86.8935 13.368 87.3243 13.2763 87.7591 13.2782C88.6958 13.2782 89.4622 13.6173 90.0826 14.3217C90.7152 15.013 91.0315 15.8478 91.0315 16.8391C91.0315 17.8434 90.7152 18.6782 90.0948 19.3695L90.253 19.539C90.9099 18.8086 91.2505 17.8956 91.2505 16.8391C91.2603 16.3421 91.177 15.8482 91.0056 15.3863C90.8342 14.9245 90.5782 14.5043 90.2527 14.1504C89.9272 13.7965 89.5388 13.5162 89.1105 13.3261C88.6822 13.1359 88.2226 13.0398 87.7591 13.0434C87.2966 13.0416 86.8384 13.139 86.4115 13.3299C85.9846 13.5208 85.5976 13.8014 85.2734 14.1551C84.9492 14.5088 84.6943 14.9284 84.5236 15.3894C84.353 15.8503 84.2701 16.3432 84.2799 16.8391C84.2799 17.8956 84.6083 18.7956 85.2774 19.539C85.9343 20.2695 86.7737 20.6347 87.7591 20.6347C88.7445 20.6347 89.5839 20.2695 90.253 19.539L90.1678 19.4477ZM92.3332 20.3608V13.3173H93.3551L96.5423 18.7956H96.5788L96.5423 17.4391V13.3173H97.3939V20.3608H96.5058L93.1604 14.6217H93.1239L93.1604 15.9782V20.3608H92.321" fill="white"/>
<path fill-rule="evenodd" clip-rule="evenodd" d="M92.333 20.3608H92.4304V13.4478H93.2819L96.4814 18.9261H96.6882L96.6517 17.4391V13.4348H97.2721V20.2434H96.5665L93.2211 14.5043H93.0143L93.0508 15.9782V20.2434H92.3209V20.3739H92.4425H92.3209V20.4782H93.2698V15.9782L93.2333 14.6087H93.1238V14.7391H93.1603V14.6087L93.0751 14.6739L96.4449 20.4782H97.4911V13.2H96.4327V17.4391L96.4692 18.7956H96.5787V18.6782H96.5422V18.8087L96.6395 18.7304L93.4157 13.2H92.2114V20.4782H92.333V20.3608Z" fill="white"/>
</svg>
