<svg width="174" height="60" viewBox="0 0 174 60" fill="none" xmlns="http://www.w3.org/2000/svg">
<path fill-rule="evenodd" clip-rule="evenodd" d="M13.8147 3.91299H160.526C163.787 3.91299 164.967 4.27821 166.159 4.95647C167.336 5.62377 168.298 6.65549 168.92 7.91732C169.553 9.19558 169.894 10.4608 169.894 13.9434V46.0563C169.894 49.5389 169.553 50.8041 168.92 52.0823C168.298 53.3442 167.336 54.3759 166.159 55.0432C164.967 55.7215 163.787 56.0867 160.539 56.0867H13.8025C10.5544 56.0867 9.37443 55.7215 8.18224 55.0432C7.00537 54.3759 6.04312 53.3442 5.42075 52.0823C4.78816 50.8041 4.44754 49.5389 4.44754 46.0563V13.9434C4.44754 10.4608 4.78816 9.19558 5.42075 7.91732C6.04312 6.65549 7.00537 5.62377 8.18224 4.95647C9.37443 4.27821 10.5544 3.91299 13.8025 3.91299H13.8147Z" fill="#293145"/>
<path d="M41.3687 30.039C41.393 27.5999 42.5852 25.3564 44.5195 24.0782C43.9135 23.1515 43.114 22.3894 42.1846 21.8527C41.2553 21.316 40.2219 21.0195 39.1668 20.9869C36.9284 20.726 34.7508 22.4217 33.6073 22.4217C32.4395 22.4217 30.6755 21.013 28.7778 21.0521C27.55 21.095 26.3534 21.4779 25.3046 22.1636C24.2558 22.8493 23.3903 23.8145 22.7925 24.9651C20.2013 29.7781 22.1356 36.8346 24.6173 40.7216C25.8581 42.6129 27.2936 44.7389 29.2035 44.6607C31.0526 44.5824 31.7582 43.3955 33.9844 43.3955C36.2107 43.3955 36.8554 44.6607 38.7897 44.6215C40.7848 44.5824 42.0378 42.7042 43.2421 40.7868C44.1302 39.4303 44.8236 37.9303 45.2737 36.352C44.1166 35.827 43.1293 34.9484 42.4349 33.8258C41.7405 32.7031 41.3697 31.3861 41.3687 30.039ZM37.707 18.4304C38.7948 17.0333 39.3316 15.2364 39.2033 13.4217C37.5367 13.6173 36.0039 14.4652 34.909 15.8086C34.3701 16.4655 33.9573 17.2299 33.6943 18.058C33.4312 18.8861 33.3232 19.7617 33.3762 20.6347C34.2067 20.6436 35.0283 20.4498 35.7786 20.0679C36.5289 19.6859 37.1884 19.126 37.707 18.4304Z" fill="white"/>
<path d="M66.8549 38.6608H61.1008L59.7139 43.0434H57.2809L62.7309 26.8435H65.2734L70.7234 43.0434H68.2417L66.8549 38.6608ZM61.6969 36.6391H66.2588L64.0082 29.5304H63.9474L61.6969 36.6391ZM82.4993 37.1347C82.4993 40.7999 80.6745 43.1608 77.9008 43.1608C77.2008 43.2008 76.5044 43.0287 75.8912 42.6643C75.2781 42.2998 74.773 41.7577 74.4338 41.0999H74.3851V46.9434H72.1224V31.2261H74.3121V33.1826H74.3486C74.7032 32.5257 75.2176 31.9846 75.8369 31.617C76.4561 31.2494 77.1569 31.0692 77.8643 31.0956C80.6623 31.0956 82.4993 33.4695 82.4993 37.1347ZM80.1757 37.1347C80.1757 34.7478 79.02 33.1695 77.2561 33.1695C75.5408 33.1695 74.3729 34.7739 74.3729 37.1347C74.3729 39.5086 75.5408 41.113 77.2683 41.113C79.02 41.113 80.1757 39.5478 80.1757 37.1347ZM94.6158 37.1347C94.6158 40.7999 92.791 43.1608 90.0295 43.1608C89.3294 43.2008 88.633 43.0287 88.0199 42.6643C87.4068 42.2998 86.9017 41.7577 86.5624 41.0999H86.5016V46.9434H84.251V31.2261H86.4408V33.1826H86.4773C86.8309 32.5277 87.3434 31.9879 87.9603 31.6204C88.5772 31.2529 89.2755 31.0716 89.9808 31.0956C92.7788 31.0956 94.6158 33.4695 94.6158 37.1347ZM92.3044 37.1347C92.3044 34.7478 91.1487 33.1695 89.3847 33.1695C87.6573 33.1695 86.5016 34.7739 86.5016 37.1347C86.5016 39.5086 87.6573 41.113 89.3847 41.113C91.1487 41.113 92.3044 39.5478 92.3044 37.1347ZM102.633 38.5304C102.803 40.1347 104.251 41.1912 106.246 41.1912C108.156 41.1912 109.53 40.1347 109.53 38.6869C109.53 37.4217 108.691 36.6782 106.732 36.1565L104.786 35.6478C102 34.9304 100.723 33.5478 100.723 31.2913C100.723 28.4869 102.985 26.5696 106.209 26.5696C109.409 26.5696 111.598 28.4869 111.671 31.2913H109.384C109.25 29.6739 107.997 28.6826 106.185 28.6826C104.36 28.6826 103.119 29.6739 103.119 31.1217C103.119 32.2565 103.91 32.9478 105.856 33.4565L107.523 33.8869C110.625 34.6695 111.902 36.013 111.902 38.3739C111.902 41.413 109.652 43.3043 106.075 43.3043C102.73 43.3043 100.467 41.4521 100.321 38.5304H102.633ZM116.793 28.4348V31.2261H118.885V33.1434H116.793V39.6652C116.793 40.6695 117.206 41.1391 118.131 41.1391C118.374 41.1391 118.618 41.113 118.861 41.0869V42.9912C118.459 43.0825 118.034 43.1217 117.62 43.1086C115.382 43.1086 114.518 42.1956 114.518 39.913V33.1434H112.912V31.2261H114.518V28.4348H116.793ZM120.09 37.1347C120.09 33.4174 122.133 31.0826 125.321 31.0826C128.508 31.0826 130.552 33.4304 130.552 37.1347C130.552 40.8651 128.52 43.1869 125.321 43.1869C122.121 43.1869 120.09 40.8651 120.09 37.1347ZM128.24 37.1347C128.24 34.5913 127.145 33.0913 125.321 33.0913C123.496 33.0913 122.401 34.5913 122.401 37.1347C122.401 39.6912 123.496 41.1782 125.321 41.1782C127.145 41.1782 128.24 39.6912 128.24 37.1347ZM132.413 31.2261H134.566V33.2347H134.615C134.919 31.9434 136.026 31.0565 137.267 31.1087C137.522 31.1087 137.79 31.1348 138.045 31.2V33.4695C137.715 33.3577 137.37 33.3048 137.023 33.313C136.694 33.2973 136.365 33.3586 136.059 33.4929C135.754 33.6271 135.479 33.831 135.255 34.0903C135.03 34.3497 134.861 34.6584 134.759 34.9949C134.657 35.3314 134.624 35.6877 134.663 36.0391V43.0434H132.413V31.2261ZM148.459 39.5738C148.155 41.713 146.208 43.1869 143.714 43.1869C140.515 43.1869 138.532 40.8782 138.532 37.1869C138.532 33.4826 140.527 31.0826 143.629 31.0826C146.67 31.0826 148.593 33.3261 148.593 36.913V37.7347H140.807V37.8912C140.772 38.3258 140.824 38.7633 140.959 39.1748C141.094 39.5863 141.308 39.9624 141.589 40.2781C141.87 40.5938 142.21 40.842 142.587 41.0061C142.964 41.1703 143.369 41.2467 143.775 41.2304C144.87 41.3347 145.904 40.6695 146.318 39.5738H148.459ZM140.819 36.0521H146.33C146.35 35.6613 146.295 35.2703 146.167 34.9034C146.04 34.5366 145.843 34.2019 145.59 33.9203C145.336 33.6387 145.031 33.4162 144.694 33.2668C144.357 33.1175 143.994 33.0444 143.629 33.0521C142.887 33.0521 142.175 33.3682 141.651 33.9308C141.126 34.4934 140.831 35.2565 140.831 36.0521H140.819Z" fill="white"/>
<path d="M61.4167 14.6476C61.8905 14.6126 62.3657 14.6907 62.8079 14.8763C63.2502 15.0619 63.6486 15.3503 63.9744 15.7208C64.3002 16.0913 64.5453 16.5347 64.692 17.019C64.8387 17.5033 64.8835 18.0165 64.823 18.5215C64.823 20.9998 63.57 22.4346 61.4167 22.4346H58.7891V14.6476H61.4167ZM59.9204 21.3259H61.2829C61.6209 21.3468 61.959 21.2871 62.2728 21.1509C62.5866 21.0148 62.8683 20.8056 63.0976 20.5386C63.3268 20.2716 63.498 19.9533 63.5986 19.6067C63.6992 19.2602 63.7268 18.894 63.6795 18.5346C63.7268 18.1752 63.6992 17.809 63.5986 17.4625C63.498 17.1159 63.3268 16.7976 63.0976 16.5306C62.8683 16.2635 62.5866 16.0544 62.2728 15.9182C61.959 15.7821 61.6209 15.7223 61.2829 15.7433H59.9204V21.3259ZM66.1003 19.4868C66.076 19.1068 66.1248 18.7255 66.2437 18.3666C66.3626 18.0077 66.549 17.6788 66.7915 17.4004C67.0339 17.1221 67.3271 16.9001 67.6529 16.7483C67.9788 16.5966 68.3302 16.5183 68.6854 16.5183C69.0406 16.5183 69.3921 16.5966 69.7179 16.7483C70.0437 16.9001 70.3369 17.1221 70.5793 17.4004C70.8218 17.6788 71.0082 18.0077 71.1271 18.3666C71.246 18.7255 71.2948 19.1068 71.2705 19.4868C71.2948 19.8667 71.246 20.248 71.1271 20.6069C71.0082 20.9658 70.8218 21.2947 70.5793 21.5731C70.3369 21.8515 70.0437 22.0734 69.7179 22.2252C69.3921 22.3769 69.0406 22.4553 68.6854 22.4553C68.3302 22.4553 67.9788 22.3769 67.6529 22.2252C67.3271 22.0734 67.0339 21.8515 66.7915 21.5731C66.549 21.2947 66.3626 20.9658 66.2437 20.6069C66.1248 20.248 66.076 19.8667 66.1003 19.4868ZM70.1513 19.4868C70.1513 18.2215 69.6282 17.4781 68.6915 17.4781C67.7426 17.4781 67.2195 18.2215 67.2195 19.4868C67.2195 20.7781 67.7426 21.5085 68.6793 21.5085C69.6282 21.5085 70.1513 20.765 70.1513 19.4868ZM78.1316 22.4346H77.0125L75.8811 18.1042H75.7959L74.6646 22.4346H73.5697L72.0491 16.565H73.1439L74.1171 21.0389H74.2023L75.3337 16.552H76.3677L77.4991 21.0389H77.5842L78.5574 16.552H79.6401L78.1316 22.4346ZM80.9053 16.565H81.9515V17.4911H82.0367C82.3165 16.7998 82.9734 16.3824 83.6668 16.4476C83.9332 16.4249 84.2009 16.4669 84.45 16.5705C84.6991 16.6741 84.9232 16.8367 85.1056 17.046C85.2881 17.2554 85.4241 17.5062 85.5035 17.7797C85.583 18.0533 85.6038 18.3425 85.5646 18.6259V22.4346H84.4697V18.9128C84.4697 17.9737 84.1047 17.5042 83.3018 17.5042C83.1204 17.4936 82.9389 17.5254 82.7701 17.5975C82.6012 17.6696 82.449 17.7802 82.324 17.9217C82.199 18.0631 82.1042 18.2321 82.0462 18.4167C81.9882 18.6014 81.9683 18.7974 81.988 18.9911V22.4346H80.9053V16.565ZM87.292 14.2694H88.3625V22.4346H87.2798L87.292 14.2694ZM89.871 19.4868C89.8467 19.1068 89.8955 18.7255 90.0144 18.3666C90.1333 18.0077 90.3197 17.6788 90.5622 17.4004C90.8046 17.1221 91.0978 16.9001 91.4236 16.7483C91.7495 16.5966 92.1009 16.5183 92.4561 16.5183C92.8113 16.5183 93.1628 16.5966 93.4886 16.7483C93.8144 16.9001 94.1076 17.1221 94.35 17.4004C94.5925 17.6788 94.7789 18.0077 94.8978 18.3666C95.0167 18.7255 95.0655 19.1068 95.0412 19.4868C95.0655 19.8667 95.0167 20.248 94.8978 20.6069C94.7789 20.9658 94.5925 21.2947 94.35 21.5731C94.1076 21.8515 93.8144 22.0734 93.4886 22.2252C93.1628 22.3769 92.8113 22.4553 92.4561 22.4553C92.1009 22.4553 91.7495 22.3769 91.4236 22.2252C91.0978 22.0734 90.8046 21.8515 90.5622 21.5731C90.3197 21.2947 90.1333 20.9658 90.0144 20.6069C89.8955 20.248 89.8467 19.8667 89.871 19.4868ZM93.922 19.4868C93.922 18.2215 93.3867 17.4781 92.4622 17.4781C91.5133 17.4781 90.9902 18.2215 90.9902 19.4868C90.9902 20.7781 91.5133 21.5085 92.45 21.5085C93.3867 21.5085 93.922 20.765 93.922 19.4868ZM96.1726 20.765C96.1726 19.7215 96.9025 19.1085 98.2163 19.0172L99.7005 18.9259V18.4172C99.7005 17.8042 99.3112 17.452 98.5691 17.452C97.9608 17.452 97.5472 17.6868 97.4377 18.1042H96.3794C96.501 17.0868 97.3769 16.4476 98.6178 16.4476C99.9924 16.4476 100.771 17.1781 100.771 18.4172V22.4346H99.7248V21.5998H99.6396C99.2868 22.2128 98.6664 22.565 97.9973 22.5259C97.7672 22.5514 97.5347 22.5249 97.3147 22.4481C97.0947 22.3713 96.8922 22.2459 96.7202 22.0799C96.5483 21.914 96.4107 21.7112 96.3164 21.4847C96.222 21.2582 96.173 21.0131 96.1726 20.765ZM99.7005 20.2694V19.7737L98.3623 19.865C97.608 19.9172 97.2674 20.2041 97.2674 20.7128C97.2674 21.2346 97.6932 21.5476 98.2771 21.5476C98.4495 21.5674 98.6237 21.5496 98.7895 21.4955C98.9553 21.4414 99.1092 21.3521 99.2421 21.2328C99.375 21.1134 99.484 20.9666 99.5628 20.8011C99.6415 20.6356 99.6884 20.4547 99.7005 20.2694ZM102.194 19.4868C102.194 17.6346 103.082 16.4607 104.469 16.4607C105.163 16.4216 105.82 16.8259 106.148 17.4911H106.221V14.2694H107.316V22.4346H106.27V21.5085H106.184C105.832 22.1607 105.175 22.552 104.469 22.5259C103.07 22.5259 102.194 21.352 102.194 19.4868ZM103.313 19.4868C103.313 20.7389 103.861 21.4824 104.773 21.4824C105.686 21.4824 106.245 20.7259 106.245 19.4998C106.245 18.2737 105.674 17.5042 104.773 17.5042C103.861 17.5042 103.313 18.2607 103.313 19.4868ZM111.78 19.4868C111.756 19.1068 111.805 18.7255 111.924 18.3666C112.043 18.0077 112.229 17.6788 112.472 17.4004C112.714 17.1221 113.007 16.9001 113.333 16.7483C113.659 16.5966 114.01 16.5183 114.366 16.5183C114.721 16.5183 115.072 16.5966 115.398 16.7483C115.724 16.9001 116.017 17.1221 116.259 17.4004C116.502 17.6788 116.688 18.0077 116.807 18.3666C116.926 18.7255 116.975 19.1068 116.951 19.4868C116.975 19.8667 116.926 20.248 116.807 20.6069C116.688 20.9658 116.502 21.2947 116.259 21.5731C116.017 21.8515 115.724 22.0734 115.398 22.2252C115.072 22.3769 114.721 22.4553 114.366 22.4553C114.01 22.4553 113.659 22.3769 113.333 22.2252C113.007 22.0734 112.714 21.8515 112.472 21.5731C112.229 21.2947 112.043 20.9658 111.924 20.6069C111.805 20.248 111.756 19.8667 111.78 19.4868ZM115.831 19.4868C115.831 18.2215 115.296 17.4781 114.372 17.4781C113.423 17.4781 112.9 18.2215 112.9 19.4868C112.9 20.7781 113.423 21.5085 114.359 21.5085C115.296 21.5085 115.831 20.765 115.831 19.4868ZM118.398 16.565H119.432V17.4911H119.517C119.797 16.7998 120.454 16.3824 121.16 16.4476C121.425 16.427 121.691 16.4705 121.939 16.575C122.187 16.6795 122.409 16.8424 122.59 17.0515C122.771 17.2606 122.906 17.5106 122.985 17.7832C123.064 18.0557 123.084 18.3437 123.045 18.6259V22.4346H121.975V18.9128C121.975 17.9737 121.586 17.5042 120.783 17.5042C120.602 17.4955 120.422 17.5288 120.255 17.6018C120.087 17.6747 119.937 17.7856 119.813 17.9269C119.689 18.0681 119.596 18.2363 119.538 18.42C119.481 18.6037 119.462 18.7985 119.481 18.9911V22.4346H118.386V16.565H118.398ZM129.164 15.0911V16.5911H130.344V17.5563H129.164V20.5824C129.164 21.1954 129.396 21.4694 129.931 21.4694L130.344 21.4433V22.4085C130.15 22.4476 129.955 22.4607 129.761 22.4607C128.544 22.4607 128.082 22.0041 128.082 20.8824V17.5563H127.206V16.5911H128.082V15.0911H129.164ZM131.816 14.2694H132.899V17.5042H132.984C133.276 16.8129 133.945 16.3824 134.651 16.4607C134.915 16.4449 135.179 16.4917 135.425 16.5978C135.67 16.704 135.891 16.8669 136.071 17.0749C136.251 17.2829 136.386 17.5309 136.467 17.8012C136.547 18.0715 136.571 18.3576 136.537 18.6389V22.4215H135.454V18.9259C135.454 17.9868 135.04 17.5172 134.286 17.5172C134.1 17.4992 133.912 17.5253 133.736 17.5937C133.56 17.662 133.4 17.771 133.268 17.9128C133.136 18.0546 133.034 18.2259 132.97 18.4145C132.907 18.6031 132.882 18.8044 132.899 19.0042V22.4346H131.816V14.2694ZM142.838 20.8433C142.69 21.3788 142.372 21.8418 141.938 22.1517C141.505 22.4615 140.984 22.5985 140.466 22.5389C140.106 22.5479 139.748 22.4732 139.417 22.3199C139.087 22.1666 138.791 21.9383 138.551 21.6507C138.31 21.3631 138.131 21.0231 138.025 20.6541C137.918 20.285 137.888 19.8957 137.936 19.5128C137.889 19.1282 137.919 18.7372 138.025 18.3662C138.131 17.9952 138.31 17.6529 138.55 17.3624C138.789 17.0719 139.085 16.8399 139.415 16.6821C139.746 16.5243 140.104 16.4444 140.466 16.4476C141.986 16.4476 142.899 17.5563 142.899 19.4085V19.7998H139.043V19.8781C139.026 20.0937 139.051 20.3107 139.117 20.5153C139.183 20.7198 139.288 20.9073 139.425 21.0658C139.563 21.2242 139.729 21.3501 139.915 21.4353C140.1 21.5206 140.301 21.5632 140.502 21.5607C141.025 21.6259 141.536 21.3389 141.804 20.8433H142.838ZM139.043 18.952H141.804C141.818 18.7556 141.793 18.5583 141.731 18.3727C141.67 18.1871 141.573 18.0172 141.448 17.8737C141.322 17.7302 141.17 17.6163 141.001 17.5392C140.832 17.4622 140.65 17.4236 140.466 17.4259C140.278 17.4224 140.091 17.4594 139.917 17.5349C139.743 17.6103 139.585 17.7226 139.452 17.865C139.319 18.0074 139.215 18.1771 139.144 18.3638C139.074 18.5506 139.039 18.7506 139.043 18.952Z" fill="white"/>
</svg>
