<svg width="500" height="500" viewBox="0 0 500 500" fill="none" xmlns="http://www.w3.org/2000/svg">
<path d="M500 382.4H0V382.65H500V382.4Z" fill="#EBEBEB"/>
<path d="M449.9 398.49H416.78V398.74H449.9V398.49Z" fill="#EBEBEB"/>
<path d="M331.22 401.21H322.53V401.46H331.22V401.21Z" fill="#EBEBEB"/>
<path d="M415.78 389.21H396.59V389.46H415.78V389.21Z" fill="#EBEBEB"/>
<path d="M95.65 390.89H52.46V391.14H95.65V390.89Z" fill="#EBEBEB"/>
<path d="M110.89 390.89H104.56V391.14H110.89V390.89Z" fill="#EBEBEB"/>
<path d="M225.15 395.11H131.47V395.36H225.15V395.11Z" fill="#EBEBEB"/>
<path d="M237 337.8H43.91C42.3973 337.797 40.9476 337.195 39.8789 336.124C38.8102 335.053 38.21 333.603 38.21 332.09V60.66C38.2232 59.156 38.8292 57.718 39.8964 56.6582C40.9637 55.5985 42.406 55.0026 43.91 55H237C238.514 55 239.967 55.6016 241.038 56.6724C242.108 57.7433 242.71 59.1956 242.71 60.71V332.09C242.71 333.604 242.108 335.057 241.038 336.128C239.967 337.198 238.514 337.8 237 337.8ZM43.91 55.2C42.4637 55.2026 41.0774 55.7791 40.0557 56.8027C39.0339 57.8264 38.46 59.2136 38.46 60.66V332.09C38.46 333.536 39.0339 334.924 40.0557 335.947C41.0774 336.971 42.4637 337.547 43.91 337.55H237C238.447 337.547 239.835 336.971 240.858 335.948C241.881 334.924 242.457 333.537 242.46 332.09V60.66C242.457 59.2127 241.881 57.8255 240.858 56.8021C239.835 55.7787 238.447 55.2026 237 55.2H43.91Z" fill="#EBEBEB"/>
<path d="M453.31 337.8H260.21C258.696 337.797 257.246 337.195 256.175 336.125C255.105 335.054 254.503 333.604 254.5 332.09V60.66C254.516 59.1551 255.124 57.7171 256.193 56.6576C257.262 55.5981 258.705 55.0025 260.21 55H453.31C454.812 55.0052 456.252 55.6022 457.317 56.6617C458.382 57.7212 458.987 59.1578 459 60.66V332.09C459 333.601 458.401 335.05 457.335 336.121C456.268 337.191 454.821 337.795 453.31 337.8ZM260.21 55.2C258.763 55.2026 257.375 55.7787 256.352 56.8021C255.329 57.8255 254.753 59.2127 254.75 60.66V332.09C254.753 333.537 255.329 334.924 256.352 335.948C257.375 336.971 258.763 337.547 260.21 337.55H453.31C454.757 337.547 456.145 336.971 457.168 335.948C458.191 334.924 458.767 333.537 458.77 332.09V60.66C458.767 59.2127 458.191 57.8255 457.168 56.8021C456.145 55.7787 454.757 55.2026 453.31 55.2H260.21Z" fill="#EBEBEB"/>
<path d="M131 379.14H61.93C69.42 372.26 87.05 372.68 87.05 372.68C87.05 372.68 74.82 359.55 79.33 351.12C83.84 342.69 95.92 361.17 95.92 361.17C95.92 361.17 80.73 333.68 86.38 326.83C92.03 319.98 107.22 356.93 107.22 356.93C107.22 356.93 97.99 317.82 103.54 316.71C109.09 315.6 114.89 353.8 114.89 353.8C114.89 353.8 112.89 318.88 117.56 319.88C122.23 320.88 120 366.44 120 366.44C120 366.44 124.7 343.19 126.7 350.61C128.7 358.03 124.7 373.92 124.7 373.92C126.216 373.832 127.709 374.321 128.878 375.29C130.047 376.258 130.805 377.634 131 379.14Z" fill="#E0E0E0"/>
<path d="M167.24 379.14H256.93C247.21 370.21 224.31 370.76 224.31 370.76C224.31 370.76 240.19 353.69 234.31 342.76C228.43 331.83 212.78 355.76 212.78 355.76C212.78 355.76 232.5 320.06 225.16 311.16C217.82 302.26 198.11 350.26 198.11 350.26C198.11 350.26 210.11 299.47 202.88 298.03C195.65 296.59 188.15 346.19 188.15 346.19C188.15 346.19 190.74 300.85 184.67 302.14C178.6 303.43 181.55 362.61 181.55 362.61C181.55 362.61 175.45 332.42 172.84 342.05C170.23 351.68 175.45 372.32 175.45 372.32C169.47 372.44 167.74 376.55 167.24 379.14Z" fill="#E0E0E0"/>
<path d="M249.48 379.14H318.55C311.06 372.26 293.43 372.68 293.43 372.68C293.43 372.68 305.66 359.55 301.15 351.12C296.64 342.69 284.56 361.17 284.56 361.17C284.56 361.17 299.75 333.68 294.1 326.83C288.45 319.98 273.26 356.93 273.26 356.93C273.26 356.93 282.49 317.82 276.94 316.71C271.39 315.6 265.59 353.8 265.59 353.8C265.59 353.8 267.59 318.88 262.92 319.88C258.25 320.88 260.51 366.44 260.51 366.44C260.51 366.44 255.81 343.19 253.81 350.61C251.81 358.03 255.81 373.92 255.81 373.92C254.289 373.824 252.789 374.31 251.613 375.279C250.438 376.248 249.675 377.629 249.48 379.14Z" fill="#E0E0E0"/>
<path d="M114.59 379.14C111.53 332.14 104.16 211.87 105.2 160.99L100.29 160.66C100.29 160.66 95.39 313.94 98.07 379.14H114.59Z" fill="#E0E0E0"/>
<path d="M103.89 182.01L116.5 171.76L117.76 165.4L125.33 153.85L126.96 153.26L119.49 166.32L119.19 170.7L130.54 168.62L135.29 159.85L140.3 155.92L141.05 157.22L136.78 161.03L133.28 170.39L117.74 174.3L101.53 193.95L103.89 182.01Z" fill="#E0E0E0"/>
<path d="M101.42 172.48L100.81 176.78L87.18 163.73L78.78 162.07L72.3 157.6L72.74 157.17L78.9 161.09L85.72 161.41L79.26 153.38L72.9 148.75L73.33 148.48L79.71 152.61L90.21 163.24L89.17 153.52L86.74 149.39L86.5 148.25L89.56 152.75L97.54 150.12L98.21 150.62L90.02 153.53L91.5 164.25L101.42 172.48Z" fill="#E0E0E0"/>
<path d="M146.79 155.74C147.1 154 144.34 152.74 141.36 152.55C139.165 152.407 136.987 152.073 134.85 151.55C135.13 150.93 134.93 150.18 135.33 149.1C136.2 146.74 135.73 145.15 133.12 143.1C130.51 141.05 127.88 141.45 122.12 142.1C116.36 142.75 117.2 140.18 112.04 137.71C106.88 135.24 88.91 136.27 85.6 138.57C83.6 139.95 75.85 139.14 73.7 142.52C71.55 145.9 58.84 145 60.52 148C62.2 151 64.23 151.07 63.89 156C63.55 160.93 68.02 159.28 72.48 161.13C76.94 162.98 76.34 159.51 79.26 159.29C82.18 159.07 81.37 158.77 84.37 157.38C87.37 155.99 86.95 157.74 91.71 160.13C94.33 161.45 95.3 159.85 96.11 158.13C96.6 159.24 96.05 160.86 97.03 162.74C97.82 164.24 100.97 164.58 103.97 164.3C107.26 170.54 108.67 165.3 112.79 165.78C117.14 166.25 123.68 162.78 126.74 162.45C129.8 162.12 130.01 161.3 133.17 163.76C136.33 166.22 149.98 161.42 151.27 158.95C152.56 156.48 146.48 157.48 146.79 155.74Z" fill="#E0E0E0"/>
<path d="M203 379.14C200.1 333.19 195 244.49 195.77 204.91L191.57 204.63C191.57 204.63 187.92 318.51 189.29 379.14H203Z" fill="#E0E0E0"/>
<path d="M194.62 222.89L205.4 214.12L206.48 208.68L212.95 198.81L214.34 198.3L207.96 209.46L207.7 213.22L217.41 211.43L221.47 203.94L225.76 200.57L226.4 201.68L222.75 204.94L219.75 212.95L206.46 216.29L192.59 233.09L194.62 222.89Z" fill="#E0E0E0"/>
<path d="M192.5 214.74L191.98 218.41L180.32 207.25L173.14 205.83L167.6 202.01L167.98 201.64L173.24 204.99L179.07 205.27L173.55 198.4L168.11 194.44L168.48 194.21L173.94 197.74L182.92 206.83L182.03 198.52L179.94 194.98L179.74 194.01L182.36 197.86L189.19 195.61L189.76 196.04L182.76 198.53L184.02 207.7L192.5 214.74Z" fill="#E0E0E0"/>
<path d="M231.31 200.42C231.57 198.93 229.21 197.87 226.67 197.69C224.788 197.563 222.92 197.269 221.09 196.81C221.33 196.28 221.16 195.63 221.5 194.71C222.25 192.71 221.85 191.34 219.62 189.58C217.39 187.82 215.13 188.17 210.24 188.74C205.35 189.31 206.04 187.1 201.62 184.99C197.2 182.88 181.84 183.76 179.01 185.72C177.31 186.9 170.67 186.22 168.83 189.11C166.99 192 156.09 191.26 157.53 193.77C158.97 196.28 160.69 196.4 160.41 200.6C160.13 204.8 163.93 203.4 167.75 204.98C171.57 206.56 171.06 203.6 173.55 203.41C176.04 203.22 175.36 202.97 177.92 201.78C180.48 200.59 180.13 202.08 184.2 204.13C186.44 205.26 187.27 203.89 187.97 202.46C188.38 203.41 187.91 204.8 188.75 206.4C189.42 207.69 192.12 207.98 194.68 207.74C197.49 213.08 198.68 208.62 202.23 209.01C205.94 209.41 211.54 206.47 214.16 206.16C216.78 205.85 216.95 205.16 219.66 207.28C222.37 209.4 234.04 205.28 235.14 203.16C236.24 201.04 231 201.91 231.31 200.42Z" fill="#E0E0E0"/>
<path d="M169.82 333.31C168.89 326.73 151.38 191.44 147.41 107.5H140.85C140.85 107.5 144.54 277.09 155.53 338.91L169.82 333.31Z" fill="#E6E6E6"/>
<path d="M86.92 379.14H261.05C242.16 368.84 197.72 369.48 197.72 369.48C197.72 369.48 228.55 349.81 217.18 337.21C205.81 324.61 175.37 352.21 175.37 352.21C175.37 352.21 213.65 311.07 199.37 300.81C185.09 290.55 146.84 345.87 146.84 345.87C146.84 345.87 170.09 287.33 156.11 285.67C142.13 284.01 127.5 341.18 127.5 341.18C127.5 341.18 132.5 288.92 120.75 290.41C109 291.9 114.68 360.1 114.68 360.1C114.68 360.1 102.84 325.31 97.78 336.4C92.72 347.49 102.86 371.29 102.86 371.29C91.23 371.42 87.88 376.16 86.92 379.14Z" fill="#F0F0F0"/>
<path d="M147.57 135.59L163.43 120.82L164.53 112.24L173.57 96.18L175.68 95.25L166.91 113.3V119.16L181.83 115.37L187.37 103.28L193.68 97.58L194.79 99.24L189.45 104.7L185.64 117.48L165.31 124.09L145.49 151.69L147.57 135.59Z" fill="#E6E6E6"/>
<path d="M143.41 123.14L142.99 128.9L123.67 112.77L112.34 111.31L103.31 105.94L103.87 105.33L112.41 109.99L121.52 109.82L112.19 99.7L103.31 94.11L103.87 93.71L112.73 98.64L127.66 111.84L125.4 98.99L121.79 93.71L121.37 92.22L125.86 97.94L136.24 93.71L137.17 94.32L126.54 98.94L129.47 113.07L143.41 123.14Z" fill="#E6E6E6"/>
<path d="M202.3 96.76C202.55 94.42 198.77 93.01 194.79 93.01C191.853 92.9995 188.923 92.7386 186.03 92.23C186.34 91.37 186.03 90.38 186.44 88.91C187.39 85.7 186.63 83.62 182.96 81.13C179.29 78.64 175.83 79.4 168.28 80.81C160.73 82.22 161.57 78.7 154.47 75.88C147.37 73.06 123.56 76.05 119.36 79.4C116.84 81.4 106.43 81.04 103.87 85.74C101.31 90.44 84.27 90.43 86.77 94.18C89.27 97.93 92 97.94 92 104.51C92 111.08 97.78 108.51 103.89 110.51C110 112.51 108.89 108.01 112.75 107.45C116.61 106.89 115.51 106.57 119.38 104.45C123.25 102.33 122.84 104.69 129.38 107.45C132.99 108.97 134.14 106.76 135.07 104.45C135.81 105.89 135.24 108.1 136.71 110.51C137.89 112.44 142.12 112.6 146.08 111.96C151.02 119.96 152.43 112.96 157.96 113.14C163.78 113.37 172.18 108.21 176.23 107.45C180.28 106.69 180.47 105.63 184.91 108.61C189.35 111.59 207.07 103.99 208.56 100.61C210.05 97.23 202.05 99.11 202.3 96.76Z" fill="#F0F0F0"/>
<path d="M426 106.08C426 104.285 425.287 102.563 424.017 101.293C422.747 100.023 421.026 99.31 419.23 99.31C418.573 99.3095 417.919 99.4073 417.29 99.6C417.587 97.5643 417.442 95.4885 416.866 93.5136C416.29 91.5386 415.296 89.7108 413.951 88.1542C412.605 86.5976 410.941 85.3486 409.071 84.492C407.2 83.6355 405.167 83.1914 403.11 83.19C402.224 83.192 401.34 83.2757 400.47 83.44C399.059 81.117 396.931 79.3162 394.406 78.3095C391.882 77.3028 389.098 77.1449 386.476 77.8597C383.854 78.5746 381.535 80.1233 379.871 82.2719C378.207 84.4205 377.287 87.0524 377.25 89.77H377.04C375.495 89.7246 373.957 89.9895 372.517 90.5493C371.076 91.109 369.763 91.9521 368.654 93.0287C367.545 94.1052 366.664 95.3933 366.062 96.8167C365.46 98.24 365.15 99.7697 365.15 101.315C365.15 102.86 365.46 104.39 366.062 105.813C366.664 107.237 367.545 108.525 368.654 109.601C369.763 110.678 371.076 111.521 372.517 112.081C373.957 112.641 375.495 112.905 377.04 112.86H419.42C421.184 112.811 422.859 112.074 424.088 110.808C425.317 109.541 426.003 107.845 426 106.08Z" fill="#F5F5F5"/>
<path d="M279.92 169.28C279.92 168.391 279.745 167.512 279.404 166.691C279.064 165.87 278.565 165.124 277.936 164.496C277.308 163.869 276.561 163.371 275.74 163.032C274.919 162.693 274.039 162.519 273.15 162.52C272.493 162.52 271.84 162.615 271.21 162.8C271.507 160.762 271.362 158.683 270.784 156.706C270.206 154.729 269.209 152.9 267.861 151.343C266.512 149.786 264.844 148.537 262.97 147.683C261.096 146.828 259.06 146.387 257 146.39C256.114 146.392 255.23 146.476 254.36 146.64C252.94 144.331 250.809 142.546 248.287 141.551C245.766 140.556 242.99 140.405 240.376 141.122C237.761 141.839 235.45 143.384 233.789 145.525C232.127 147.667 231.205 150.29 231.16 153H231C229.455 152.955 227.917 153.22 226.477 153.779C225.036 154.339 223.723 155.182 222.614 156.259C221.505 157.335 220.624 158.623 220.022 160.047C219.42 161.47 219.11 163 219.11 164.545C219.11 166.09 219.42 167.62 220.022 169.043C220.624 170.467 221.505 171.755 222.614 172.831C223.723 173.908 225.036 174.751 226.477 175.311C227.917 175.87 229.455 176.135 231 176.09H273.38C275.143 176.033 276.814 175.288 278.036 174.016C279.258 172.744 279.934 171.044 279.92 169.28Z" fill="#F5F5F5"/>
<path d="M437.15 252.69C437.15 250.894 436.437 249.173 435.167 247.903C433.897 246.633 432.176 245.92 430.38 245.92C429.723 245.919 429.069 246.017 428.44 246.21C428.737 244.174 428.592 242.098 428.016 240.124C427.44 238.149 426.446 236.321 425.1 234.764C423.755 233.208 422.091 231.959 420.221 231.102C418.35 230.245 416.317 229.801 414.26 229.8C413.374 229.802 412.49 229.886 411.62 230.05C410.209 227.727 408.081 225.926 405.556 224.919C403.032 223.913 400.248 223.755 397.626 224.47C395.004 225.185 392.685 226.733 391.021 228.882C389.357 231.031 388.437 233.662 388.4 236.38H388.19C385.129 236.38 382.194 237.596 380.03 239.76C377.866 241.924 376.65 244.859 376.65 247.92C376.65 250.981 377.866 253.916 380.03 256.08C382.194 258.244 385.129 259.46 388.19 259.46H430.57C432.332 259.411 434.006 258.675 435.235 257.411C436.464 256.147 437.151 254.453 437.15 252.69Z" fill="#F5F5F5"/>
<path d="M98.81 222.15C98.8074 221.066 98.3756 220.027 97.6092 219.261C96.8427 218.494 95.8039 218.063 94.72 218.06C94.3201 218.063 93.9226 218.124 93.54 218.24C93.7189 217.012 93.6322 215.76 93.2856 214.569C92.9391 213.377 92.3408 212.274 91.5312 211.333C90.7216 210.393 89.7196 209.637 88.5928 209.117C87.4661 208.598 86.2409 208.326 85 208.32C84.4664 208.319 83.934 208.369 83.41 208.47C82.5494 207.084 81.2638 206.012 79.7448 205.416C78.2258 204.819 76.5548 204.73 74.9807 205.161C73.4067 205.591 72.0139 206.519 71.0101 207.805C70.0062 209.092 69.445 210.669 69.41 212.3H69.28C67.4235 212.3 65.643 213.038 64.3303 214.35C63.0175 215.663 62.28 217.444 62.28 219.3C62.28 221.157 63.0175 222.937 64.3303 224.25C65.643 225.563 67.4235 226.3 69.28 226.3H94.83C95.906 226.271 96.9273 225.819 97.6724 225.042C98.4174 224.266 98.8262 223.226 98.81 222.15Z" fill="#F5F5F5"/>
<path d="M315.73 93.73C315.73 93.0927 315.581 92.4643 315.296 91.8948C315.01 91.3252 314.595 90.8303 314.084 90.4496C313.573 90.0688 312.98 89.8127 312.353 89.7016C311.725 89.5906 311.081 89.6277 310.47 89.81C310.649 88.5795 310.562 87.325 310.213 86.1313C309.865 84.9377 309.264 83.8329 308.451 82.892C307.638 81.9511 306.633 81.1961 305.502 80.6781C304.372 80.1601 303.143 79.8913 301.9 79.89C301.363 79.8938 300.828 79.944 300.3 80.04C299.439 78.6535 298.154 77.5822 296.635 76.9858C295.116 76.3894 293.445 76.2999 291.871 76.7305C290.297 77.1611 288.904 78.0888 287.9 79.3754C286.896 80.6619 286.335 82.2385 286.3 83.87H286.18C284.323 83.87 282.543 84.6075 281.23 85.9202C279.918 87.233 279.18 89.0134 279.18 90.87C279.18 92.7265 279.918 94.507 281.23 95.8197C282.543 97.1325 284.323 97.87 286.18 97.87H311.8C312.866 97.8309 313.875 97.3756 314.61 96.6017C315.344 95.8278 315.746 94.7969 315.73 93.73Z" fill="#F5F5F5"/>
<path d="M250 427.56C357.082 427.56 443.89 422.492 443.89 416.24C443.89 409.988 357.082 404.92 250 404.92C142.918 404.92 56.11 409.988 56.11 416.24C56.11 422.492 142.918 427.56 250 427.56Z" fill="#F5F5F5"/>
<path d="M372.25 400C372.25 400 369 399.83 368.68 391C368.36 382.17 374.08 379.74 378.48 380.83C378.48 380.83 377.84 374.5 380.69 374.74C383.54 374.98 383.35 379.19 383.35 379.19C383.35 379.19 384.35 370.19 388.22 370.19C392.09 370.19 388.22 380.8 388.22 380.8C388.22 380.8 393.61 378.21 395.59 380.8C397.57 383.39 393.12 386.42 393.12 386.42C393.12 386.42 400.12 388.7 397.18 395.94C397.18 395.94 402.05 396.7 403.41 399.94C403.41 399.94 403.02 393.39 404.78 393.83C406.54 394.27 406.14 400.01 406.14 400.01C406.14 400.01 409.06 393.71 411.59 395.93C414.12 398.15 410.43 403.5 410.43 403.5C410.43 403.5 415.3 401.14 416.07 404.27C416.84 407.4 413.35 408.57 413.35 408.57C413.35 408.57 418.41 407.4 418.41 413.21C418.41 413.21 428.15 412.28 430.49 417.5H372.49L372.25 400Z" fill="#0F9AFE"/>
<path opacity="0.4" d="M372.25 400C372.25 400 369 399.83 368.68 391C368.36 382.17 374.08 379.74 378.48 380.83C378.48 380.83 377.84 374.5 380.69 374.74C383.54 374.98 383.35 379.19 383.35 379.19C383.35 379.19 384.35 370.19 388.22 370.19C392.09 370.19 388.22 380.8 388.22 380.8C388.22 380.8 393.61 378.21 395.59 380.8C397.57 383.39 393.12 386.42 393.12 386.42C393.12 386.42 400.12 388.7 397.18 395.94C397.18 395.94 402.05 396.7 403.41 399.94C403.41 399.94 403.02 393.39 404.78 393.83C406.54 394.27 406.14 400.01 406.14 400.01C406.14 400.01 409.06 393.71 411.59 395.93C414.12 398.15 410.43 403.5 410.43 403.5C410.43 403.5 415.3 401.14 416.07 404.27C416.84 407.4 413.35 408.57 413.35 408.57C413.35 408.57 418.41 407.4 418.41 413.21C418.41 413.21 428.15 412.28 430.49 417.5H372.49L372.25 400Z" fill="white"/>
<path d="M342.61 309C341.21 332 333.61 417 333.61 417L388.52 417.51L373.08 263.92L397.72 256.4L402.89 241.47L423.7 229.7L433.87 214.08L429.94 213.08L418.71 227.5L405.61 230.35L411.22 217.06H405L389.4 247.84L373.4 251.12L371.94 195.12C355.86 202.63 350.72 190.12 350.72 190.12C350.72 190.12 346.56 277.78 344.22 284.4C341.85 283.081 339.645 281.487 337.65 279.65C332.224 274.82 327.51 269.244 323.65 263.09L322.65 261.44H317.65L342.61 309Z" fill="#0F9AFE"/>
<g opacity="0.2">
<path opacity="0.2" d="M342.61 309C341.21 332 333.61 417 333.61 417L388.52 417.51L373.08 263.92L397.72 256.4L402.89 241.47L423.7 229.7L433.87 214.08L429.94 213.08L418.71 227.5L405.61 230.35L411.22 217.06H405L389.4 247.84L373.4 251.12L371.94 195.12C355.86 202.63 350.72 190.12 350.72 190.12C350.72 190.12 346.56 277.78 344.22 284.4C341.85 283.081 339.645 281.487 337.65 279.65C332.224 274.82 327.51 269.244 323.65 263.09L322.65 261.44H317.65L342.61 309Z" fill="black"/>
</g>
<path opacity="0.1" d="M400.49 237.32L393.8 250.22L372.87 255.52C372.87 255.52 372.94 252.23 373.28 248.01L373.37 251.17L389.37 247.89L405 217.11H411.24L405.63 230.4L418.73 227.55L429.96 213.13L430.51 213.26L421.86 226.35L400.49 237.32Z" fill="black"/>
<path d="M370.36 341.56L375.3 417.39L366.59 417.31V357.46L370.36 341.56Z" fill="#0F9AFE"/>
<path d="M342.61 309L317.61 261.49H322.61L323.61 263.14C327.47 269.294 332.184 274.87 337.61 279.7C339.605 281.537 341.81 283.131 344.18 284.45C346.52 277.83 350.68 190.17 350.68 190.17C351.487 191.884 352.662 193.4 354.121 194.61C355.579 195.82 357.286 196.694 359.12 197.17C359.353 225.483 359.59 253.797 359.83 282.11C361.6 278.11 363.14 274.22 363.29 270.03C363.82 281.63 364.53 294.1 364.48 305.55L354.86 341.04L353 417.18L333.64 417C333.64 417 341.21 332 342.61 309Z" fill="#0F9AFE"/>
<path d="M280.81 160.66C272.81 163.52 267.28 171.99 267.53 180.5C267.761 184.762 269.183 188.873 271.635 192.366C274.087 195.86 277.47 198.595 281.4 200.26C285.372 201.823 289.676 202.35 293.907 201.792C298.139 201.234 302.159 199.609 305.59 197.07C305.94 205.24 311.52 214.12 319.31 216.59C323.245 217.769 327.443 217.743 331.363 216.517C335.283 215.291 338.748 212.92 341.31 209.71C362.31 222.9 435.81 227.79 448.73 171.62C451.39 160.02 444.93 147.74 435.46 140.53C425.99 133.32 413.95 130.37 402.14 128.92C390.93 111.07 366.07 101.32 345.14 104.12C324.21 106.92 305.68 122.73 299.57 142.9C278.28 143 280.5 162.09 280.81 160.66Z" fill="#0F9AFE"/>
<g opacity="0.2">
<path opacity="0.2" d="M280.81 160.66C272.81 163.52 267.28 171.99 267.53 180.5C267.761 184.762 269.183 188.873 271.635 192.366C274.087 195.86 277.47 198.595 281.4 200.26C285.372 201.823 289.676 202.35 293.907 201.792C298.139 201.234 302.159 199.609 305.59 197.07C305.94 205.24 311.52 214.12 319.31 216.59C323.245 217.769 327.443 217.743 331.363 216.517C335.283 215.291 338.748 212.92 341.31 209.71C362.31 222.9 435.81 227.79 448.73 171.62C451.39 160.02 444.93 147.74 435.46 140.53C425.99 133.32 413.95 130.37 402.14 128.92C390.93 111.07 366.07 101.32 345.14 104.12C324.21 106.92 305.68 122.73 299.57 142.9C278.28 143 280.5 162.09 280.81 160.66Z" fill="black"/>
</g>
<path d="M306.74 271.15C307.935 272.92 309.609 274.314 311.567 275.167C313.525 276.02 315.686 276.298 317.796 275.967C319.906 275.637 321.879 274.712 323.482 273.301C325.086 271.89 326.254 270.051 326.85 268C331.85 271.5 339.51 270.64 344.55 267.23C347.092 265.509 349.049 263.055 350.162 260.195C351.275 257.334 351.49 254.202 350.778 251.217C350.067 248.231 348.464 245.532 346.181 243.48C343.898 241.428 341.045 240.12 338 239.73C337.758 236.944 336.87 234.253 335.407 231.869C333.944 229.486 331.945 227.476 329.57 226C327.081 224.475 324.283 223.524 321.38 223.218C318.477 222.912 315.542 223.258 312.79 224.23C309.569 223.704 306.269 223.954 303.163 224.957C300.057 225.96 297.235 227.689 294.93 230C291.56 233.27 289.32 237.91 289.71 242.59C290.1 247.27 293.52 251.76 298.13 252.65C297.306 254.346 296.838 256.192 296.755 258.075C296.673 259.959 296.977 261.839 297.65 263.6C299.14 267.08 303.16 269.82 306.74 271.15Z" fill="#0F9AFE"/>
<path opacity="0.2" d="M306.74 271.15C307.935 272.92 309.609 274.314 311.567 275.167C313.525 276.02 315.686 276.298 317.796 275.967C319.906 275.637 321.879 274.712 323.482 273.301C325.086 271.89 326.254 270.051 326.85 268C331.85 271.5 339.51 270.64 344.55 267.23C347.092 265.509 349.049 263.055 350.162 260.195C351.275 257.334 351.49 254.202 350.778 251.217C350.067 248.231 348.464 245.532 346.181 243.48C343.898 241.428 341.045 240.12 338 239.73C337.758 236.944 336.87 234.253 335.407 231.869C333.944 229.486 331.945 227.476 329.57 226C327.081 224.475 324.283 223.524 321.38 223.218C318.477 222.912 315.542 223.258 312.79 224.23C309.569 223.704 306.269 223.954 303.163 224.957C300.057 225.96 297.235 227.689 294.93 230C291.56 233.27 289.32 237.91 289.71 242.59C290.1 247.27 293.52 251.76 298.13 252.65C297.306 254.346 296.838 256.192 296.755 258.075C296.673 259.959 296.977 261.839 297.65 263.6C299.14 267.08 303.16 269.82 306.74 271.15Z" fill="black"/>
<path d="M412.56 186.23C410.541 185.533 408.366 185.426 406.289 185.921C404.212 186.416 402.318 187.492 400.831 189.024C399.343 190.556 398.322 192.48 397.888 194.571C397.454 196.661 397.625 198.833 398.38 200.83C392.3 201.02 386.67 206.33 384.69 212.08C383.689 214.978 383.595 218.113 384.419 221.066C385.243 224.02 386.946 226.653 389.303 228.614C391.66 230.576 394.558 231.773 397.612 232.048C400.666 232.322 403.731 231.66 406.4 230.15C408.27 232.232 410.599 233.849 413.203 234.873C415.807 235.897 418.613 236.3 421.4 236.05C424.307 235.774 427.116 234.853 429.622 233.355C432.129 231.857 434.27 229.819 435.89 227.39C438.782 225.881 441.273 223.705 443.158 221.043C445.043 218.381 446.267 215.309 446.73 212.08C447.46 207.45 446.47 202.39 443.34 198.88C440.21 195.37 434.79 193.88 430.57 195.88C430.206 194.037 429.469 192.289 428.404 190.741C427.34 189.193 425.97 187.879 424.38 186.88C421.09 184.93 416.22 185.15 412.56 186.23Z" fill="#0F9AFE"/>
<path opacity="0.1" d="M412.56 186.23C410.541 185.533 408.366 185.426 406.289 185.921C404.212 186.416 402.318 187.492 400.831 189.024C399.343 190.556 398.322 192.48 397.888 194.571C397.454 196.661 397.625 198.833 398.38 200.83C392.3 201.02 386.67 206.33 384.69 212.08C383.689 214.978 383.595 218.113 384.419 221.066C385.243 224.02 386.946 226.653 389.303 228.614C391.66 230.576 394.558 231.773 397.612 232.048C400.666 232.322 403.731 231.66 406.4 230.15C408.27 232.232 410.599 233.849 413.203 234.873C415.807 235.897 418.613 236.3 421.4 236.05C424.307 235.774 427.116 234.853 429.622 233.355C432.129 231.857 434.27 229.819 435.89 227.39C438.782 225.881 441.273 223.705 443.158 221.043C445.043 218.381 446.267 215.309 446.73 212.08C447.46 207.45 446.47 202.39 443.34 198.88C440.21 195.37 434.79 193.88 430.57 195.88C430.206 194.037 429.469 192.289 428.404 190.741C427.34 189.193 425.97 187.879 424.38 186.88C421.09 184.93 416.22 185.15 412.56 186.23Z" fill="black"/>
<path d="M375.45 415.29C375.45 415.29 355.28 402.22 359.11 400C362.94 397.78 376.38 410.85 376.38 410.85C376.38 410.85 361.52 389.11 365.19 384.75C368.86 380.39 378.75 402.47 378.75 402.47C378.75 402.47 372.03 377.23 376.75 374.47C381.47 371.71 383.22 399.76 383.22 399.76C383.22 399.76 385.07 369.36 393.77 369.76C402.47 370.16 389.77 399.76 389.77 399.76C389.77 399.76 402.04 382.17 406.39 387.16C410.74 392.15 392.54 406.16 392.54 406.16C392.54 406.16 406.15 399.77 407.06 404.51C407.97 409.25 392.06 414.3 392.06 414.3C392.06 414.3 397.17 415.77 398.36 417.49H371.18C371.18 417.49 370.74 416.2 375.45 415.29Z" fill="#0F9AFE"/>
<path opacity="0.6" d="M375.45 415.29C375.45 415.29 355.28 402.22 359.11 400C362.94 397.78 376.38 410.85 376.38 410.85C376.38 410.85 361.52 389.11 365.19 384.75C368.86 380.39 378.75 402.47 378.75 402.47C378.75 402.47 372.03 377.23 376.75 374.47C381.47 371.71 383.22 399.76 383.22 399.76C383.22 399.76 385.07 369.36 393.77 369.76C402.47 370.16 389.77 399.76 389.77 399.76C389.77 399.76 402.04 382.17 406.39 387.16C410.74 392.15 392.54 406.16 392.54 406.16C392.54 406.16 406.15 399.77 407.06 404.51C407.97 409.25 392.06 414.3 392.06 414.3C392.06 414.3 397.17 415.77 398.36 417.49H371.18C371.18 417.49 370.74 416.2 375.45 415.29Z" fill="white"/>
<path d="M114.67 364.63C114.6 364.27 107.84 329.2 101.24 324.53C94.83 320.01 89.24 326.22 89.04 326.53L88.29 325.88C88.35 325.8 94.68 318.73 101.81 323.77C108.75 328.66 115.37 363.03 115.65 364.49L114.67 364.63Z" fill="#0F9AFE"/>
<path d="M112.16 367.52C112.16 367.28 109.66 343.17 101.89 335.77C100.01 333.98 98.17 333.28 96.42 333.69C92.26 334.64 89.69 341.37 89.67 341.44L88.73 341.09C88.84 340.79 91.51 333.79 96.19 332.71C98.29 332.23 100.44 333.01 102.58 335.04C110.58 342.7 113.06 366.42 113.16 367.42L112.16 367.52Z" fill="#0F9AFE"/>
<path d="M107.5 328.37C107.5 328.37 112.02 327.46 112.89 331.37C113.76 335.28 105.37 347.68 105.37 347.68C105.37 347.68 97.75 346.21 97.75 336.19C97.75 326.17 106 326.14 107.5 328.37Z" fill="#0F9AFE"/>
<path opacity="0.2" d="M107.5 328.37C107.5 328.37 112.02 327.46 112.89 331.37C113.76 335.28 105.37 347.68 105.37 347.68C105.37 347.68 97.75 346.21 97.75 336.19C97.75 326.17 106 326.14 107.5 328.37Z" fill="white"/>
<path d="M95.83 335.93C95.83 335.93 97.65 333.93 95.26 333.44C92.87 332.95 81.84 335 83.45 346C83.45 346 96.69 346.11 97.63 341.67C98.57 337.23 95.83 335.93 95.83 335.93Z" fill="#0F9AFE"/>
<path opacity="0.2" d="M95.83 335.93C95.83 335.93 97.65 333.93 95.26 333.44C92.87 332.95 81.84 335 83.45 346C83.45 346 96.69 346.11 97.63 341.67C98.57 337.23 95.83 335.93 95.83 335.93Z" fill="white"/>
<path d="M112.83 317.08C112.83 317.08 112.32 315.08 114.1 315.6C115.88 316.12 122.65 321.46 117.59 328.32C117.59 328.32 108.59 323.62 109.59 320.32C110.59 317.02 112.83 317.08 112.83 317.08Z" fill="#0F9AFE"/>
<path opacity="0.2" d="M112.83 317.08C112.83 317.08 112.32 315.08 114.1 315.6C115.88 316.12 122.65 321.46 117.59 328.32C117.59 328.32 108.59 323.62 109.59 320.32C110.59 317.02 112.83 317.08 112.83 317.08Z" fill="white"/>
<path d="M279.18 371.82L278.18 371.55C278.3 371.14 289.84 330.07 310.71 319.01L311.18 319.89C290.72 330.76 279.29 371.41 279.18 371.82Z" fill="#0F9AFE"/>
<path d="M279.37 367.18L278.46 366.76C278.67 366.33 298.58 322.81 291.72 308.99L292.61 308.55C299.69 322.79 280.2 365.38 279.37 367.18Z" fill="#0F9AFE"/>
<path d="M278.59 370.33L277.59 370.04C278.27 367.78 294.26 314.67 304.49 308.14L305.03 308.98C295.15 315.31 278.75 369.78 278.59 370.33Z" fill="#0F9AFE"/>
<path d="M295.32 310.7C295.32 310.7 298.32 311.49 298.75 309.7C299.18 307.91 290 299.19 280.75 303.98C280.75 303.98 282.15 312.64 288.07 314.98C293.99 317.32 295.32 310.7 295.32 310.7Z" fill="#0F9AFE"/>
<path opacity="0.2" d="M295.32 310.7C295.32 310.7 298.32 311.49 298.75 309.7C299.18 307.91 290 299.19 280.75 303.98C280.75 303.98 282.15 312.64 288.07 314.98C293.99 317.32 295.32 310.7 295.32 310.7Z" fill="white"/>
<path d="M302.29 308.51C302.29 308.51 299.21 308.77 299.1 306.89C298.99 305.01 309.55 298.06 317.79 304.39C317.79 304.39 314.89 312.67 308.65 313.98C302.41 315.29 302.29 308.51 302.29 308.51Z" fill="#0F9AFE"/>
<path opacity="0.2" d="M302.29 308.51C302.29 308.51 299.21 308.77 299.1 306.89C298.99 305.01 309.55 298.06 317.79 304.39C317.79 304.39 314.89 312.67 308.65 313.98C302.41 315.29 302.29 308.51 302.29 308.51Z" fill="white"/>
<path d="M312.06 316.82C312.06 316.82 310.7 314.47 313.13 314.51C315.56 314.55 325.95 318.79 322.08 329.2C322.08 329.2 309.08 326.55 309.08 322.02C309.08 317.49 312.06 316.82 312.06 316.82Z" fill="#0F9AFE"/>
<path opacity="0.2" d="M312.06 316.82C312.06 316.82 310.7 314.47 313.13 314.51C315.56 314.55 325.95 318.79 322.08 329.2C322.08 329.2 309.08 326.55 309.08 322.02C309.08 317.49 312.06 316.82 312.06 316.82Z" fill="white"/>
<path d="M302.41 322.7C302.41 322.7 302.98 320.7 304.26 322.06C305.54 323.42 308.73 331.4 300.93 334.82C300.93 334.82 295.48 326.26 297.98 323.82C300.48 321.38 302.41 322.7 302.41 322.7Z" fill="#0F9AFE"/>
<path opacity="0.2" d="M302.41 322.7C302.41 322.7 302.98 320.7 304.26 322.06C305.54 323.42 308.73 331.4 300.93 334.82C300.93 334.82 295.48 326.26 297.98 323.82C300.48 321.38 302.41 322.7 302.41 322.7Z" fill="white"/>
<path d="M91.93 323.38C91.93 323.38 92.93 321.54 91.06 321.63C89.19 321.72 81.33 325.2 84.54 333.09C84.54 333.09 94.42 330.76 94.31 327.29C94.2 323.82 91.93 323.38 91.93 323.38Z" fill="#0F9AFE"/>
<path opacity="0.2" d="M91.93 323.38C91.93 323.38 92.93 321.54 91.06 321.63C89.19 321.72 81.33 325.2 84.54 333.09C84.54 333.09 94.42 330.76 94.31 327.29C94.2 323.82 91.93 323.38 91.93 323.38Z" fill="white"/>
<path d="M267.68 391.53C267.68 391.53 261.08 391.27 260.43 377.96C259.78 364.65 271.43 361.1 280.34 362.73C280.34 362.73 279.03 353.25 284.83 353.6C290.63 353.95 290.23 360.28 290.23 360.28C290.23 360.28 292.23 346.84 300.12 346.83C308.01 346.82 300.12 362.73 300.12 362.73C300.12 362.73 311.07 358.85 315.12 362.73C319.17 366.61 310.12 371.15 310.12 371.15C310.12 371.15 324.31 374.56 318.38 385.42C318.38 385.42 328.27 386.56 331.04 391.42C331.04 391.42 330.25 381.61 333.81 382.27C337.37 382.93 336.57 391.53 336.57 391.53C336.57 391.53 342.51 382.08 347.65 385.42C352.79 388.76 345.28 396.76 345.28 396.76C345.28 396.76 355.17 393.22 356.75 397.91C358.33 402.6 351.21 404.36 351.21 404.36C351.21 404.36 361.5 402.6 361.5 411.31C361.5 411.31 381.28 409.91 386.03 417.73H268.08L267.68 391.53Z" fill="#0F9AFE"/>
<path opacity="0.4" d="M267.68 391.53C267.68 391.53 261.08 391.27 260.43 377.96C259.78 364.65 271.43 361.1 280.34 362.73C280.34 362.73 279.03 353.25 284.83 353.6C290.63 353.95 290.23 360.28 290.23 360.28C290.23 360.28 292.23 346.84 300.12 346.83C308.01 346.82 300.12 362.73 300.12 362.73C300.12 362.73 311.07 358.85 315.12 362.73C319.17 366.61 310.12 371.15 310.12 371.15C310.12 371.15 324.31 374.56 318.38 385.42C318.38 385.42 328.27 386.56 331.04 391.42C331.04 391.42 330.25 381.61 333.81 382.27C337.37 382.93 336.57 391.53 336.57 391.53C336.57 391.53 342.51 382.08 347.65 385.42C352.79 388.76 345.28 396.76 345.28 396.76C345.28 396.76 355.17 393.22 356.75 397.91C358.33 402.6 351.21 404.36 351.21 404.36C351.21 404.36 361.5 402.6 361.5 411.31C361.5 411.31 381.28 409.91 386.03 417.73H268.08L267.68 391.53Z" fill="white"/>
<path d="M130.06 391.53C130.06 391.53 134.93 391.27 135.41 377.96C135.89 364.65 127.32 361.1 120.72 362.73C120.72 362.73 121.72 353.25 117.41 353.6C113.1 353.95 113.41 360.28 113.41 360.28C113.41 360.28 111.95 346.84 106.11 346.83C100.27 346.82 106.11 362.73 106.11 362.73C106.11 362.73 98.04 358.85 95.11 362.73C92.18 366.61 98.82 371.15 98.82 371.15C98.82 371.15 88.35 374.56 92.73 385.42C92.73 385.42 85.43 386.56 83.39 391.42C83.39 391.42 83.97 381.61 81.39 382.27C78.81 382.93 79.39 391.53 79.39 391.53C79.39 391.53 75.02 382.08 71.22 385.42C67.42 388.76 72.97 396.76 72.97 396.76C72.97 396.76 65.68 393.22 64.51 397.91C63.34 402.6 68.6 404.36 68.6 404.36C68.6 404.36 61.01 402.6 61.01 411.31C61.01 411.31 46.42 409.91 42.91 417.73H129.91L130.06 391.53Z" fill="#0F9AFE"/>
<path opacity="0.4" d="M130.06 391.53C130.06 391.53 134.93 391.27 135.41 377.96C135.89 364.65 127.32 361.1 120.72 362.73C120.72 362.73 121.72 353.25 117.41 353.6C113.1 353.95 113.41 360.28 113.41 360.28C113.41 360.28 111.95 346.84 106.11 346.83C100.27 346.82 106.11 362.73 106.11 362.73C106.11 362.73 98.04 358.85 95.11 362.73C92.18 366.61 98.82 371.15 98.82 371.15C98.82 371.15 88.35 374.56 92.73 385.42C92.73 385.42 85.43 386.56 83.39 391.42C83.39 391.42 83.97 381.61 81.39 382.27C78.81 382.93 79.39 391.53 79.39 391.53C79.39 391.53 75.02 382.08 71.22 385.42C67.42 388.76 72.97 396.76 72.97 396.76C72.97 396.76 65.68 393.22 64.51 397.91C63.34 402.6 68.6 404.36 68.6 404.36C68.6 404.36 61.01 402.6 61.01 411.31C61.01 411.31 46.42 409.91 42.91 417.73H129.91L130.06 391.53Z" fill="white"/>
<path d="M86.64 415.51C86.64 415.51 106.8 402.44 103 400.24C99.2 398.04 85.7 411.08 85.7 411.08C85.7 411.08 100.56 389.34 96.89 384.98C93.22 380.62 83.33 402.7 83.33 402.7C83.33 402.7 90.05 377.46 85.33 374.7C80.61 371.94 78.84 400 78.84 400C78.84 400 77 369.59 68.29 370C59.58 370.41 72.29 400 72.29 400C72.29 400 60 382.39 55.64 387.39C51.28 392.39 69.48 406.39 69.48 406.39C69.48 406.39 55.87 400 55 404.76C54.13 409.52 70 414.55 70 414.55C70 414.55 64.88 416.02 63.7 417.73H90.91C90.91 417.73 91.34 416.43 86.64 415.51Z" fill="#0F9AFE"/>
<path opacity="0.6" d="M86.64 415.51C86.64 415.51 106.8 402.44 103 400.24C99.2 398.04 85.7 411.08 85.7 411.08C85.7 411.08 100.56 389.34 96.89 384.98C93.22 380.62 83.33 402.7 83.33 402.7C83.33 402.7 90.05 377.46 85.33 374.7C80.61 371.94 78.84 400 78.84 400C78.84 400 77 369.59 68.29 370C59.58 370.41 72.29 400 72.29 400C72.29 400 60 382.39 55.64 387.39C51.28 392.39 69.48 406.39 69.48 406.39C69.48 406.39 55.87 400 55 404.76C54.13 409.52 70 414.55 70 414.55C70 414.55 64.88 416.02 63.7 417.73H90.91C90.91 417.73 91.34 416.43 86.64 415.51Z" fill="white"/>
<path d="M96.73 417.73C96.73 417.73 119.93 332.36 124.15 329.2C128.37 326.04 152.44 317.13 152.44 317.13C152.44 317.13 210.99 326.91 219.79 325.94C228.59 324.97 256.87 319.53 260.93 325.94C264.99 332.35 281 370.87 281 370.87L303.49 380.36L317.74 417.73H96.73Z" fill="#0F9AFE"/>
<path opacity="0.6" d="M317.74 417.73H96.74C96.74 417.73 119.83 332.73 124.13 329.21C125.631 328.227 127.214 327.374 128.86 326.66C137.22 322.77 152.42 317.15 152.42 317.15C152.42 317.15 210.97 326.93 219.77 325.96C228.57 324.99 256.85 319.54 260.91 325.96C261.77 327.33 263.18 330.15 264.86 333.75C271.08 347 281 370.86 281 370.86L303.49 380.36L317.74 417.73Z" fill="white"/>
<path opacity="0.1" d="M264.88 333.73L256.15 342.37L233.4 337L207.66 342.35L209.31 352.3L199.94 363.46L203.27 352.3L196 340.05C196 340.05 166.38 341.85 158.65 340.05C153.8 338.92 139.13 331.78 128.91 326.64C137.27 322.75 152.47 317.13 152.47 317.13C152.47 317.13 211.02 326.91 219.82 325.94C228.62 324.97 256.9 319.52 260.96 325.94C261.79 327.31 263.2 330.13 264.88 333.73Z" fill="black"/>
<path opacity="0.1" d="M317.74 417.73H96.74C96.74 417.73 119.83 332.73 124.13 329.21L109.89 395.45L117.01 406.45L134.51 393.17L148 400.61L166.62 396.85L168.47 387.85L194.85 370.5L178.29 385.84L184.12 403.34L209.47 407.71H237.47L249 400L245.14 384.3L239.31 375.2L268.86 375.13L256.28 382.92L260.92 396.75L275.15 403.35L291.69 393.14L298.43 412.62L317.74 417.73Z" fill="black"/>
<path d="M288.2 417.73H324.83C324.83 417.73 317.54 406.57 314.43 407.99C310.38 409.83 307.38 399.72 302.9 402.11C301.32 402.96 302.1 405.66 301.1 406.75C299.46 408.55 297.37 408.2 295.39 409.19C291.5 411.13 290.12 413.69 288.2 417.73Z" fill="#0F9AFE"/>
<path opacity="0.2" d="M288.2 417.73H324.83C324.83 417.73 317.54 406.57 314.43 407.99C310.38 409.83 307.38 399.72 302.9 402.11C301.32 402.96 302.1 405.66 301.1 406.75C299.46 408.55 297.37 408.2 295.39 409.19C291.5 411.13 290.12 413.69 288.2 417.73Z" fill="black"/>
<path d="M320.83 414.62C320.83 414.62 318.42 400.67 320.08 398.62C321.74 396.57 322.03 406.23 322.03 406.23C322.03 406.23 327.61 386.07 331.18 385.97C334.75 385.87 327 403.46 327 403.46C327 403.46 342.26 378.52 346.69 380.84C351.12 383.16 330.69 405.27 330.69 405.27C330.69 405.27 341.85 395.66 344.31 398.38C346.77 401.1 331.92 409.38 331.92 409.38C331.92 409.38 338.47 407.91 338.46 410.09C338.45 412.27 327.38 415.86 320.83 414.62Z" fill="#0F9AFE"/>
<path opacity="0.2" d="M320.83 414.62C320.83 414.62 318.42 400.67 320.08 398.62C321.74 396.57 322.03 406.23 322.03 406.23C322.03 406.23 327.61 386.07 331.18 385.97C334.75 385.87 327 403.46 327 403.46C327 403.46 342.26 378.52 346.69 380.84C351.12 383.16 330.69 405.27 330.69 405.27C330.69 405.27 341.85 395.66 344.31 398.38C346.77 401.1 331.92 409.38 331.92 409.38C331.92 409.38 338.47 407.91 338.46 410.09C338.45 412.27 327.38 415.86 320.83 414.62Z" fill="white"/>
<path d="M318.63 412.63C318.63 412.63 307.16 410.55 306.05 408.69C304.94 406.83 312.48 409.33 312.48 409.33C312.48 409.33 298.48 399.33 299.39 396.53C300.3 393.73 311.72 404.74 311.72 404.74C311.72 404.74 296.72 385.9 299.79 383.12C302.86 380.34 314.18 402.38 314.18 402.38C314.18 402.38 309.9 391.03 312.69 389.89C315.48 388.75 317.69 402.59 317.69 402.59C317.69 402.59 318.4 397.11 320.08 397.73C321.76 398.35 321.44 407.91 318.63 412.63Z" fill="#0F9AFE"/>
<path opacity="0.2" d="M318.63 412.63C318.63 412.63 307.16 410.55 306.05 408.69C304.94 406.83 312.48 409.33 312.48 409.33C312.48 409.33 298.48 399.33 299.39 396.53C300.3 393.73 311.72 404.74 311.72 404.74C311.72 404.74 296.72 385.9 299.79 383.12C302.86 380.34 314.18 402.38 314.18 402.38C314.18 402.38 309.9 391.03 312.69 389.89C315.48 388.75 317.69 402.59 317.69 402.59C317.69 402.59 318.4 397.11 320.08 397.73C321.76 398.35 321.44 407.91 318.63 412.63Z" fill="white"/>
<path d="M317.77 411.1C317.77 411.1 306.69 400.01 306.89 397.1C307.09 394.19 313.51 402.74 313.51 402.74C313.51 402.74 305.7 380.93 308.87 378.56C312.04 376.19 316.19 397.1 316.19 397.1C316.19 397.1 314.09 364.78 319.59 364.1C325.09 363.42 320.71 396.4 320.71 396.4C320.71 396.4 324.71 380.59 328.65 381.47C332.59 382.35 324.45 399.34 324.45 399.34C324.45 399.34 329.45 393.83 330.82 395.81C332.19 397.79 324.49 408 317.77 411.1Z" fill="#0F9AFE"/>
<path opacity="0.1" d="M317.77 411.1C317.77 411.1 306.69 400.01 306.89 397.1C307.09 394.19 313.51 402.74 313.51 402.74C313.51 402.74 305.7 380.93 308.87 378.56C312.04 376.19 316.19 397.1 316.19 397.1C316.19 397.1 314.09 364.78 319.59 364.1C325.09 363.42 320.71 396.4 320.71 396.4C320.71 396.4 324.71 380.59 328.65 381.47C332.59 382.35 324.45 399.34 324.45 399.34C324.45 399.34 329.45 393.83 330.82 395.81C332.19 397.79 324.49 408 317.77 411.1Z" fill="white"/>
<path d="M304.34 417.73H333.53C333.53 417.73 327.72 408.84 325.24 409.97C322.02 411.44 319.63 403.38 316.06 405.29C314.8 405.96 315.41 408.11 314.62 408.98C313.31 410.42 311.62 410.14 310.07 410.93C307 412.47 305.87 414.51 304.34 417.73Z" fill="#0F9AFE"/>
<path d="M122 417.73H85.4C85.4 417.73 92.7 406.57 95.81 407.99C99.81 409.83 102.81 399.72 107.33 402.11C108.91 402.96 108.14 405.66 109.14 406.75C110.78 408.55 112.87 408.2 114.85 409.19C118.74 411.13 120.12 413.69 122 417.73Z" fill="#0F9AFE"/>
<path opacity="0.2" d="M122 417.73H85.4C85.4 417.73 92.7 406.57 95.81 407.99C99.81 409.83 102.81 399.72 107.33 402.11C108.91 402.96 108.14 405.66 109.14 406.75C110.78 408.55 112.87 408.2 114.85 409.19C118.74 411.13 120.12 413.69 122 417.73Z" fill="black"/>
<path d="M89.41 414.62C89.41 414.62 91.81 400.67 90.15 398.62C88.49 396.57 88.15 406.23 88.15 406.23C88.15 406.23 82.62 386.07 79.05 386C75.48 385.93 83.29 403.49 83.29 403.49C83.29 403.49 68 378.52 63.59 380.84C59.18 383.16 79.59 405.27 79.59 405.27C79.59 405.27 68.42 395.66 65.96 398.38C63.5 401.1 78.36 409.38 78.36 409.38C78.36 409.38 71.81 407.91 71.82 410.09C71.83 412.27 82.85 415.86 89.41 414.62Z" fill="#0F9AFE"/>
<path opacity="0.2" d="M89.41 414.62C89.41 414.62 91.81 400.67 90.15 398.62C88.49 396.57 88.15 406.23 88.15 406.23C88.15 406.23 82.62 386.07 79.05 386C75.48 385.93 83.29 403.49 83.29 403.49C83.29 403.49 68 378.52 63.59 380.84C59.18 383.16 79.59 405.27 79.59 405.27C79.59 405.27 68.42 395.66 65.96 398.38C63.5 401.1 78.36 409.38 78.36 409.38C78.36 409.38 71.81 407.91 71.82 410.09C71.83 412.27 82.85 415.86 89.41 414.62Z" fill="white"/>
<path d="M100.65 415.28C100.65 415.28 109.38 407.55 109.37 405.38C109.36 403.21 104.2 409.27 104.2 409.27C104.2 409.27 111 393.44 108.76 391.54C106.52 389.64 102.47 405 102.47 405C102.47 405 105.47 381.12 101.47 380.33C97.47 379.54 99.15 404.25 99.15 404.25C99.15 404.25 96.92 392.33 93.95 392.81C90.98 393.29 96.24 406.26 96.24 406.26C96.24 406.26 92.79 401.94 91.67 403.35C90.55 404.76 95.81 412.69 100.65 415.28Z" fill="#0F9AFE"/>
<path opacity="0.2" d="M100.65 415.28C100.65 415.28 109.38 407.55 109.37 405.38C109.36 403.21 104.2 409.27 104.2 409.27C104.2 409.27 111 393.44 108.76 391.54C106.52 389.64 102.47 405 102.47 405C102.47 405 105.47 381.12 101.47 380.33C97.47 379.54 99.15 404.25 99.15 404.25C99.15 404.25 96.92 392.33 93.95 392.81C90.98 393.29 96.24 406.26 96.24 406.26C96.24 406.26 92.79 401.94 91.67 403.35C90.55 404.76 95.81 412.69 100.65 415.28Z" fill="white"/>
<path d="M105.9 417.73H76.7C76.7 417.73 82.52 408.84 85 409.97C88.22 411.44 90.61 403.38 94.18 405.29C95.44 405.96 94.82 408.11 95.61 408.98C96.92 410.42 98.61 410.14 100.17 410.93C103.27 412.47 104.37 414.51 105.9 417.73Z" fill="#0F9AFE"/>
<path d="M174.87 226C174.87 226 141.25 220.76 134.87 223.51C128.49 226.26 126.34 236.15 126.34 236.15C126.34 236.15 125.19 238.15 128.67 238.41C128.67 238.41 114.44 273.86 118.94 280.65C123.44 287.44 168.76 290.16 174.94 286.83C181.12 283.5 195.79 228.53 174.87 226Z" fill="#263238"/>
<path d="M194.67 259.82C194.67 259.82 199.12 270.15 200.12 271.59C201.12 273.03 223.27 283.21 223.27 283.21C225.065 282.959 226.885 282.959 228.68 283.21C231.41 283.64 235.17 284.79 235.51 285.21C235.85 285.63 231.4 292.1 231.4 292.1C231.4 292.1 222.55 292.65 221.4 289.15C221.4 289.15 199.21 280.91 196.63 278.75C194.05 276.59 186.87 263.83 186.87 263.83L194.67 259.82Z" fill="#E4897B"/>
<path d="M188.3 237.2C192.46 239.68 198.97 266.38 200.37 269.55C201.77 272.72 218.77 280.43 218.77 280.43L211.23 287.65C211.23 287.65 194 280 191.86 277.86C189.72 275.72 181.12 253.53 181.12 253.53L188.3 237.2Z" fill="#0F9AFE"/>
<path d="M186.92 298.22C186.92 298.22 257.04 288.15 260.74 303.53C264.65 319.8 208.35 330.77 174.74 331.92C141.13 333.07 131.41 325.68 136.81 284.1L182.21 283.99L186.92 298.22Z" fill="#263238"/>
<path opacity="0.2" d="M186.92 298.22C186.92 298.22 257.04 288.15 260.74 303.53C264.65 319.8 208.35 330.77 174.74 331.92C141.13 333.07 131.41 325.68 136.81 284.1L182.21 283.99L186.92 298.22Z" fill="black"/>
<path d="M250.25 322.06C250.214 322.087 250.17 322.101 250.125 322.101C250.08 322.101 250.036 322.087 250 322.06C249.967 322.038 249.943 322.004 249.932 321.966C249.921 321.928 249.924 321.886 249.94 321.85C250.05 321.48 251.16 318.24 252.29 317.9C252.409 317.872 252.534 317.875 252.652 317.91C252.769 317.945 252.876 318.011 252.96 318.1C253.117 318.23 253.237 318.399 253.308 318.591C253.378 318.782 253.396 318.989 253.36 319.19C253.179 319.795 252.811 320.326 252.31 320.71C251.67 321.228 250.98 321.68 250.25 322.06ZM250.53 321.44C251.579 320.98 252.43 320.161 252.93 319.13C252.959 318.993 252.949 318.85 252.899 318.719C252.849 318.588 252.763 318.473 252.65 318.39C252.618 318.351 252.575 318.323 252.527 318.308C252.479 318.294 252.428 318.295 252.38 318.31C252.286 318.35 252.198 318.404 252.12 318.47C251.417 319.357 250.878 320.363 250.53 321.44Z" fill="#0F9AFE"/>
<path d="M250.19 322.11C250.153 322.121 250.113 322.122 250.076 322.111C250.039 322.101 250.005 322.079 249.98 322.05C249.87 321.95 248.32 319.99 248.57 318.67C248.638 318.34 248.832 318.05 249.11 317.86C249.227 317.744 249.38 317.672 249.544 317.656C249.708 317.64 249.872 317.68 250.01 317.77C250.82 318.35 250.72 320.97 250.32 321.97V322.07L250.19 322.11ZM249.3 318.26C249.162 318.383 249.067 318.548 249.03 318.73C248.87 319.57 249.65 320.83 250.03 321.43C250.29 320.31 250.21 318.43 249.73 318.14C249.68 318.14 249.58 318.03 249.34 318.2L249.26 318.26H249.3Z" fill="#0F9AFE"/>
<path d="M225.96 330.3L240.66 330.31L247.71 330.32L248.55 322.89L242.03 322.02L226.09 319.89L225.96 330.3Z" fill="#E4897B"/>
<path d="M247 322L245.21 330.47C245.188 330.581 245.189 330.695 245.212 330.806C245.235 330.917 245.28 331.022 245.345 331.115C245.409 331.208 245.491 331.288 245.587 331.349C245.682 331.41 245.788 331.451 245.9 331.47L250.12 332.23C250.12 332.23 255.73 333.66 257.31 332.65C261.91 329.71 266.31 311.06 264.47 309.65C263.79 309.15 262.6 309.91 262.01 310.52C260.12 312.45 256.09 317.83 254.49 319.43C252.63 321.29 249.32 321.34 247.87 321.27C247.66 321.263 247.456 321.334 247.295 321.468C247.135 321.603 247.029 321.792 247 322Z" fill="#263238"/>
<path opacity="0.2" d="M225.96 330.3L240.66 330.31L242.03 322.02L226.09 319.89L225.96 330.3Z" fill="black"/>
<path d="M170.45 297.71V299.57C170.452 300.189 170.692 300.783 171.12 301.23C171.548 301.677 172.132 301.942 172.75 301.97H241.14C241.776 301.949 242.382 301.691 242.839 301.247C243.296 300.804 243.571 300.206 243.61 299.57V297.71H170.45Z" fill="#263238"/>
<path opacity="0.2" d="M170.45 297.71V299.57C170.452 300.189 170.692 300.783 171.12 301.23C171.548 301.677 172.132 301.942 172.75 301.97H241.14C241.776 301.949 242.382 301.691 242.839 301.247C243.296 300.804 243.571 300.206 243.61 299.57V297.71H170.45Z" fill="white"/>
<path opacity="0.2" d="M196 297.71V299.57C196.004 300.19 196.247 300.784 196.676 301.231C197.106 301.677 197.691 301.942 198.31 301.97H241.17C241.806 301.949 242.412 301.691 242.869 301.247C243.326 300.804 243.601 300.206 243.64 299.57V297.71H196Z" fill="white"/>
<path d="M198.28 300.26H243.46C244.185 300.224 244.884 299.975 245.469 299.545C246.054 299.115 246.5 298.522 246.75 297.84L257.11 265.34C257.231 265.059 257.278 264.753 257.248 264.449C257.217 264.145 257.11 263.853 256.936 263.602C256.762 263.351 256.527 263.149 256.253 263.014C255.979 262.878 255.675 262.815 255.37 262.83H210.19C209.458 262.883 208.757 263.148 208.175 263.594C207.592 264.04 207.152 264.647 206.91 265.34L196.55 297.8C196.429 298.077 196.382 298.38 196.412 298.681C196.442 298.981 196.55 299.269 196.723 299.516C196.897 299.763 197.132 299.962 197.404 300.092C197.677 300.222 197.979 300.28 198.28 300.26Z" fill="#263238"/>
<path opacity="0.2" d="M198.28 300.26H243.46C244.185 300.224 244.884 299.975 245.469 299.545C246.054 299.115 246.5 298.522 246.75 297.84L257.11 265.34C257.231 265.059 257.278 264.753 257.248 264.449C257.217 264.145 257.11 263.853 256.936 263.602C256.762 263.351 256.527 263.149 256.253 263.014C255.979 262.878 255.675 262.815 255.37 262.83H210.19C209.458 262.883 208.757 263.148 208.175 263.594C207.592 264.04 207.152 264.647 206.91 265.34L196.55 297.8C196.429 298.077 196.382 298.38 196.412 298.681C196.442 298.981 196.55 299.269 196.723 299.516C196.897 299.763 197.132 299.962 197.404 300.092C197.677 300.222 197.979 300.28 198.28 300.26Z" fill="white"/>
<path opacity="0.2" d="M200 300.26H243.48C244.205 300.224 244.904 299.975 245.489 299.545C246.074 299.115 246.52 298.522 246.77 297.84L257.13 265.34C257.251 265.059 257.298 264.753 257.268 264.449C257.237 264.145 257.13 263.853 256.956 263.602C256.782 263.351 256.547 263.149 256.273 263.014C255.999 262.878 255.695 262.815 255.39 262.83H211.89C211.158 262.883 210.457 263.148 209.874 263.594C209.292 264.04 208.852 264.647 208.61 265.34L198.25 297.8C198.128 298.079 198.081 298.384 198.112 298.686C198.143 298.989 198.252 299.278 198.428 299.526C198.605 299.773 198.842 299.971 199.117 300.1C199.393 300.229 199.697 300.284 200 300.26Z" fill="white"/>
<path opacity="0.2" d="M226.42 283C225.86 285.16 226.94 286.92 228.83 286.92C230.72 286.92 232.69 285.16 233.25 283C233.81 280.84 232.73 279.08 230.85 279.08C228.97 279.08 227 280.87 226.42 283Z" fill="white"/>
<path opacity="0.2" d="M247 322L245.21 330.47C245.188 330.581 245.189 330.695 245.212 330.806C245.235 330.917 245.28 331.022 245.345 331.115C245.409 331.208 245.491 331.288 245.587 331.349C245.682 331.41 245.788 331.451 245.9 331.47L250.12 332.23C250.12 332.23 255.73 333.66 257.31 332.65C261.91 329.71 266.31 311.06 264.47 309.65C263.79 309.15 262.6 309.91 262.01 310.52C260.12 312.45 256.09 317.83 254.49 319.43C252.63 321.29 249.32 321.34 247.87 321.27C247.66 321.263 247.456 321.334 247.295 321.468C247.135 321.603 247.029 321.792 247 322Z" fill="white"/>
<path d="M150.26 289.99L136.08 290.17L136.35 285.56L150.26 285.26V289.99Z" fill="black"/>
<path d="M178.24 284.65L182.48 284.56L184 289.54L178.24 289.62V284.65Z" fill="black"/>
<path d="M176.43 284.69V289.64L152.44 289.96V285.21L176.43 284.69Z" fill="black"/>
<path d="M162.61 288.78L162.54 286.85C162.512 286.354 162.68 285.867 163.007 285.493C163.334 285.119 163.795 284.888 164.29 284.85L168.63 284.67C168.872 284.661 169.112 284.702 169.338 284.789C169.563 284.877 169.768 285.01 169.94 285.18C170.304 285.541 170.515 286.028 170.53 286.54L170.6 288.46C170.625 288.957 170.455 289.444 170.126 289.817C169.798 290.191 169.336 290.421 168.84 290.46L164.51 290.64H164.43C163.946 290.622 163.488 290.419 163.149 290.073C162.81 289.727 162.617 289.264 162.61 288.78ZM168.81 289.65C169.097 289.622 169.363 289.483 169.549 289.263C169.736 289.042 169.83 288.758 169.81 288.47L169.74 286.55C169.725 286.252 169.601 285.971 169.39 285.76C169.292 285.659 169.173 285.58 169.042 285.529C168.911 285.477 168.771 285.454 168.63 285.46L164.29 285.64C164.002 285.665 163.735 285.804 163.548 286.024C163.36 286.245 163.268 286.531 163.29 286.82L163.36 288.75C163.36 288.895 163.389 289.038 163.445 289.172C163.501 289.305 163.583 289.426 163.686 289.528C163.79 289.629 163.912 289.709 164.047 289.763C164.181 289.816 164.325 289.843 164.47 289.84L168.81 289.65Z" fill="white"/>
<path d="M163.35 288.15H165.53C165.662 288.147 165.788 288.094 165.881 288.001C165.974 287.907 166.027 287.782 166.03 287.65C166.03 287.517 165.977 287.39 165.884 287.296C165.79 287.203 165.663 287.15 165.53 287.15H163.35C163.217 287.15 163.09 287.203 162.996 287.296C162.903 287.39 162.85 287.517 162.85 287.65C162.853 287.782 162.906 287.907 162.999 288.001C163.093 288.094 163.218 288.147 163.35 288.15Z" fill="white"/>
<path d="M188.3 237.2C188.3 237.2 182.83 271.79 185.12 284.2L134.53 285.67C134.53 285.67 140.53 249.94 148.48 236.46C148.48 236.42 161.69 214.36 188.3 237.2Z" fill="#0F9AFE"/>
<path opacity="0.6" d="M188.3 237.2C188.3 237.2 182.83 271.79 185.12 284.2L134.53 285.67C134.53 285.67 140.53 249.94 148.48 236.46C148.48 236.42 161.69 214.36 188.3 237.2Z" fill="white"/>
<path d="M158.62 229.5C158.62 229.5 167.01 237.7 171.86 236.36C176.71 235.02 178.53 232.55 178.53 232.55C178.53 232.55 174.63 230.84 175.06 229.91C175.11 229.81 175.23 229.62 175.4 229.34C176.85 227.14 181.99 220.12 181.99 220.12L170.99 213.93C170.99 213.93 170.09 216.06 168.99 218.6C167.5 221.98 165.64 226.07 164.99 226.83C163.85 228.17 158.62 229.5 158.62 229.5Z" fill="#E4897B"/>
<path opacity="0.2" d="M168.94 218.6C169.63 222.5 171.33 227.09 175.4 229.34C176.85 227.14 181.99 220.12 181.99 220.12L170.99 213.93C170.99 213.93 170.05 216.06 168.94 218.6Z" fill="black"/>
<path d="M166.73 211C166.116 212.94 165.816 214.965 165.84 217C166.05 219.48 163.29 220.31 162.94 218.81C162.94 218.81 162.99 222.46 165.36 221.91C165.36 221.91 165.36 224.44 167.48 224.48C169.283 221.993 170.218 218.981 170.14 215.91C169.81 211.1 166.73 211 166.73 211Z" fill="#263238"/>
<path d="M185.74 198.84C182.14 200.33 182.74 208.69 188.74 215.84C192.41 212.68 194.08 205.38 193.21 202.5C191.81 197.89 188.87 197.55 185.74 198.84Z" fill="#263238"/>
<path d="M191 219.19C190.677 220.145 190.296 221.08 189.86 221.99C186.31 229.22 176.1 230.63 171.58 223.48L171.53 223.41C168.53 218.59 169.66 214.1 170.91 206.31C171.184 204.499 171.916 202.789 173.035 201.339C174.155 199.89 175.625 198.75 177.308 198.027C178.991 197.305 180.83 197.023 182.652 197.209C184.474 197.395 186.218 198.042 187.72 199.09C193.61 203.24 193.26 212.54 191 219.19Z" fill="#E4897B"/>
<path d="M181.88 211C181.74 211.63 181.96 212.21 182.36 212.3C182.76 212.39 183.21 211.96 183.36 211.3C183.51 210.64 183.29 210.09 182.88 210C182.47 209.91 182.06 210.42 181.88 211Z" fill="#263238"/>
<path d="M189 212.63C188.86 213.25 189.08 213.83 189.49 213.92C189.9 214.01 190.34 213.59 190.49 212.92C190.64 212.25 190.41 211.71 190 211.62C189.59 211.53 189.12 212 189 212.63Z" fill="#263238"/>
<path d="M186.59 212.4C186.911 214.472 187.513 216.491 188.38 218.4C187.884 218.609 187.349 218.707 186.812 218.686C186.274 218.665 185.748 218.527 185.27 218.28L186.59 212.4Z" fill="#DE5753"/>
<path d="M180.44 208.35C180.358 208.34 180.282 208.305 180.22 208.25C180.15 208.177 180.111 208.081 180.111 207.98C180.111 207.879 180.15 207.783 180.22 207.71C180.666 207.312 181.202 207.028 181.782 206.881C182.362 206.735 182.968 206.731 183.55 206.87C183.596 206.882 183.639 206.902 183.677 206.931C183.715 206.959 183.747 206.995 183.772 207.036C183.796 207.077 183.812 207.122 183.818 207.169C183.825 207.216 183.822 207.264 183.81 207.31C183.78 207.405 183.714 207.485 183.627 207.534C183.539 207.582 183.437 207.595 183.34 207.57C182.88 207.466 182.402 207.475 181.946 207.595C181.49 207.715 181.069 207.943 180.72 208.26C180.682 208.293 180.637 208.318 180.589 208.333C180.541 208.349 180.49 208.354 180.44 208.35Z" fill="#263238"/>
<path d="M192.75 211C192.681 210.98 192.618 210.944 192.567 210.893C192.516 210.842 192.48 210.779 192.46 210.71C192.364 210.249 192.162 209.817 191.868 209.448C191.575 209.08 191.198 208.786 190.77 208.59C190.676 208.556 190.6 208.487 190.557 208.397C190.514 208.307 190.508 208.204 190.54 208.11C190.574 208.016 190.643 207.94 190.733 207.897C190.823 207.854 190.926 207.848 191.02 207.88C191.568 208.117 192.052 208.483 192.429 208.946C192.807 209.408 193.068 209.955 193.19 210.54C193.202 210.587 193.204 210.636 193.197 210.685C193.19 210.733 193.174 210.779 193.149 210.821C193.123 210.863 193.09 210.899 193.051 210.928C193.012 210.957 192.967 210.978 192.92 210.99C192.865 211.005 192.807 211.008 192.75 211Z" fill="#263238"/>
<path d="M183.79 222.12C182.729 222.016 181.718 221.618 180.87 220.972C180.022 220.325 179.371 219.456 178.99 218.46C178.971 218.39 178.981 218.315 179.016 218.252C179.052 218.188 179.11 218.141 179.18 218.12C179.252 218.101 179.328 218.11 179.393 218.145C179.458 218.181 179.507 218.24 179.53 218.31C179.53 218.42 180.35 220.96 183.88 221.57C183.952 221.585 184.015 221.626 184.058 221.685C184.1 221.744 184.119 221.817 184.11 221.89C184.098 221.963 184.057 222.028 183.997 222.071C183.937 222.114 183.863 222.132 183.79 222.12Z" fill="#263238"/>
<path d="M192.51 205.07C192.51 205.07 194.83 203.29 194.74 201.21C194.66 199.896 194.243 198.625 193.528 197.52C192.813 196.414 191.825 195.512 190.66 194.9C188.449 193.62 185.945 192.931 183.39 192.9C174.53 192.38 169.71 195.04 168.19 199.77C167.25 201.45 167.27 204.57 168.11 207.49C168.115 207.506 168.115 207.524 168.11 207.54C168.564 209.206 169.35 210.764 170.42 212.12C175.82 207.44 177.83 204.12 176.98 201.92C177.16 201.87 179.84 199.47 181.03 199.41C182.75 199.32 185.92 200.95 188.49 202.48C189.9 203.31 191.35 201.98 191.35 201.98L192.51 205.07Z" fill="#263238"/>
<path d="M165.85 211.67C165.906 212.651 166.154 213.612 166.581 214.498C167.009 215.383 167.606 216.176 168.34 216.83C170.34 218.55 172.44 217.05 172.83 214.6C173.19 212.39 172.59 208.82 170.15 208.04C167.71 207.26 165.71 209.24 165.85 211.67Z" fill="#E4897B"/>
<path d="M165.84 216.93C165.84 216.93 169.12 204.18 177.23 199.43C185.34 194.68 193.75 198 193.75 198C193.662 196.721 193.478 195.451 193.2 194.2C192.96 193.8 188.94 192.42 188.94 192.42C188.94 192.42 186.65 189.05 183.47 187.97C180.29 186.89 170.79 186.58 167.47 189.35C164.15 192.12 161.96 197.76 163.36 197.86C164.76 197.96 165.83 197.96 165.83 197.96C165.83 197.96 163.21 207.01 164.33 208.37C164.34 208.36 162.4 214.66 165.84 216.93Z" fill="#0F9AFE"/>
<path d="M182.11 333.74C182.136 333.704 182.171 333.677 182.212 333.659C182.252 333.641 182.296 333.635 182.34 333.64C182.379 333.645 182.415 333.664 182.44 333.693C182.466 333.723 182.48 333.761 182.48 333.8C182.56 334.18 183.08 337.56 182.24 338.39C182.148 338.47 182.037 338.524 181.918 338.549C181.799 338.573 181.676 338.567 181.56 338.53C181.36 338.489 181.175 338.395 181.023 338.258C180.872 338.12 180.76 337.945 180.7 337.75C180.579 337.132 180.656 336.492 180.92 335.92C181.241 335.154 181.64 334.424 182.11 333.74ZM182.11 334.43C181.412 335.331 181.058 336.451 181.11 337.59C181.147 337.725 181.223 337.845 181.328 337.938C181.432 338.03 181.562 338.09 181.7 338.11C181.745 338.13 181.795 338.136 181.843 338.127C181.891 338.118 181.936 338.095 181.97 338.06C182.042 337.986 182.096 337.897 182.13 337.8C182.338 336.687 182.342 335.545 182.14 334.43H182.11Z" fill="#0F9AFE"/>
<path d="M204.49 317.19L190.55 321.82L183.85 324.05L185.4 331.36L191.87 330.13L207.66 327.11L204.49 317.19Z" fill="#E4897B"/>
<path d="M187.21 331.74L186.21 323.14C186.198 323.023 186.162 322.909 186.104 322.807C186.047 322.704 185.969 322.614 185.875 322.543C185.781 322.472 185.674 322.421 185.559 322.393C185.445 322.365 185.326 322.36 185.21 322.38L181 323C181 323 175.23 323.42 174.05 324.87C170.61 329.12 172.3 348.21 174.52 348.93C175.33 349.19 176.21 348.09 176.58 347.33C177.76 344.9 179.89 338.52 180.89 336.5C182.07 334.15 185.19 333.05 186.59 332.66C186.786 332.606 186.957 332.484 187.071 332.315C187.185 332.146 187.234 331.942 187.21 331.74Z" fill="#263238"/>
<path d="M182.14 333.68C182.172 333.656 182.21 333.642 182.25 333.642C182.29 333.642 182.328 333.656 182.36 333.68C182.49 333.68 184.78 334.68 185.17 336.01C185.225 336.174 185.245 336.348 185.228 336.521C185.211 336.693 185.157 336.86 185.07 337.01C185.019 337.164 184.917 337.297 184.78 337.386C184.644 337.475 184.482 337.515 184.32 337.5C183.32 337.37 182.2 335 182.09 333.94V333.83C182.086 333.803 182.089 333.775 182.098 333.749C182.106 333.723 182.121 333.7 182.14 333.68ZM184.72 336.68C184.78 336.505 184.78 336.315 184.72 336.14C184.48 335.32 183.2 334.57 182.55 334.24C182.84 335.35 183.77 336.94 184.35 337.01C184.41 337.01 184.53 337.01 184.66 336.77L184.71 336.68H184.72Z" fill="#0F9AFE"/>
<path opacity="0.2" d="M204.49 317.19L190.55 321.82L191.87 330.13L207.66 327.11L204.49 317.19Z" fill="black"/>
<path d="M194.29 331.42L198.27 331.79L195.89 318.04L191.32 320.44L194.29 331.42Z" fill="#0F9AFE"/>
<path opacity="0.6" d="M194.29 331.42L198.27 331.79L195.89 318.04L191.32 320.44L194.29 331.42Z" fill="white"/>
<path opacity="0.2" d="M187.21 331.74L186.21 323.14C186.198 323.023 186.162 322.909 186.104 322.807C186.047 322.704 185.969 322.614 185.875 322.543C185.781 322.472 185.674 322.421 185.559 322.393C185.445 322.365 185.326 322.36 185.21 322.38L181 323C181 323 175.23 323.42 174.05 324.87C170.61 329.12 172.3 348.21 174.52 348.93C175.33 349.19 176.21 348.09 176.58 347.33C177.76 344.9 179.89 338.52 180.89 336.5C182.07 334.15 185.19 333.05 186.59 332.66C186.786 332.606 186.957 332.484 187.071 332.315C187.185 332.146 187.234 331.942 187.21 331.74Z" fill="white"/>
<path d="M239.32 320.94C239.32 320.94 174.08 295.6 154.11 299.83C134.14 304.06 134.03 314.52 144.11 324.27C154.19 334.02 169.37 330.27 169.37 330.27C169.37 330.27 157.48 323.15 158.31 318.75C159.14 314.35 166.7 324.41 166.7 324.41C166.7 324.41 206.12 334.05 238.7 331.51L239.32 320.94Z" fill="#263238"/>
<path d="M240.11 319.88L236.45 318.2L234.34 331.93L239.44 331.1L240.11 319.88Z" fill="#0F9AFE"/>
<path opacity="0.6" d="M240.11 319.88L236.45 318.2L234.34 331.93L239.44 331.1L240.11 319.88Z" fill="white"/>
<path d="M154.48 226.84C154.48 226.84 163.31 250.84 162.85 256.23C162.39 261.62 144.2 302 144.2 302L129.2 308C129.2 308 132.29 248.69 154.48 226.84Z" fill="#0F9AFE"/>
<path opacity="0.2" d="M154.48 226.84C154.48 226.84 163.31 250.84 162.85 256.23C162.39 261.62 144.2 302 144.2 302L129.2 308C129.2 308 132.29 248.69 154.48 226.84Z" fill="black"/>
<path d="M186.35 296.51C186.35 296.51 181.63 285.32 180.12 279.12C178.61 272.92 183.89 241.07 181.05 230.38L188.3 237.2L185.23 277L186.35 296.51Z" fill="#0F9AFE"/>
<path opacity="0.2" d="M186.35 296.51C186.35 296.51 181.63 285.32 180.12 279.12C178.61 272.92 183.89 241.07 181.05 230.38L188.3 237.2L185.23 277L186.35 296.51Z" fill="black"/>
<path d="M132.82 279.12C132.82 279.12 164.11 285.12 159.16 227.96L154.07 227.52C154.07 227.52 157.17 249.24 151.46 263.45C145.75 277.66 132.29 277 132.29 277L132.82 279.12Z" fill="#263238"/>
<path d="M162.67 253.72L152.17 229.34L149 233.53C149 233.53 148.44 227.62 150.28 225.9C152.12 224.18 157.28 226.33 159.28 226.84C161.28 227.35 162.67 253.72 162.67 253.72Z" fill="#0F9AFE"/>
<path d="M179.22 230.76C179.22 230.76 183.27 242.76 182.61 261.54C181.95 280.32 185.33 278.76 185.33 278.76L185.81 276.99C185.81 276.99 183.92 276.77 184.07 270.44C184.22 264.11 185.07 238.56 182.61 231.85L179.22 230.76Z" fill="#263238"/>
<path d="M181.34 253C181.34 253 182.34 235 177.28 229.73C177.28 229.73 181.07 228.31 182.61 229.73C184.15 231.15 184.53 244.86 181.51 253.73" fill="#0F9AFE"/>
<path d="M155.93 260.36C155.93 260.36 160.51 270.99 161.54 272.47C162.57 273.95 185.36 284.47 185.36 284.47C187.208 284.213 189.082 284.213 190.93 284.47C193.74 284.91 197.61 286.09 197.93 286.54C198.25 286.99 193.7 293.63 193.7 293.63C193.7 293.63 184.59 294.19 183.46 290.63C183.46 290.63 160.62 282.15 157.97 279.93C155.32 277.71 148 264.49 148 264.49L155.93 260.36Z" fill="#E4897B"/>
<path d="M150.26 236.51C155.14 236.51 161.99 266.3 163.26 270.34C164.53 274.38 184.77 283 184.77 283L178.34 290.61C178.34 290.61 156.46 282.71 153.89 279.08C151.32 275.45 143.53 254.78 143.17 250C142.81 245.22 147 236.5 150.26 236.51Z" fill="#0F9AFE"/>
</svg>
