<svg width="80" height="80" viewBox="0 0 80 80" fill="none" xmlns="http://www.w3.org/2000/svg">
<path d="M80 38.9634C80 33.6634 73.3633 28.64 63.1867 25.5267C65.5367 15.1567 64.4933 6.90337 59.8933 4.26004C58.7787 3.63578 57.5172 3.32155 56.24 3.35004V6.98337C56.99 6.98337 57.5933 7.13337 58.1 7.41004C60.3167 8.68337 61.28 13.5234 60.53 19.7534C60.35 21.2867 60.0567 22.9 59.6967 24.5467C56.2888 23.7255 52.83 23.132 49.3433 22.77C47.2662 19.9043 45 17.1805 42.56 14.6167C47.8767 9.67671 52.8667 6.97004 56.26 6.97004V3.33337C51.7733 3.33337 45.9033 6.53004 39.9667 12.0734C34.0333 6.56671 28.16 3.40004 23.6767 3.40004V7.03337C27.0533 7.03337 32.06 9.72671 37.3767 14.6334C35.0933 17.0334 32.81 19.7534 30.64 22.77C27.1461 23.128 23.6812 23.7272 20.27 24.5634C19.8933 22.9334 19.6167 21.3534 19.42 19.8367C18.6533 13.6034 19.6 8.76337 21.8033 7.47671C22.29 7.18337 22.9267 7.05004 23.6767 7.05004V3.41671C22.31 3.41671 21.0667 3.71004 19.9933 4.32671C15.41 6.97004 14.3833 15.2034 16.7467 25.5434C6.60333 28.6767 0 33.68 0 38.9634C0 44.2634 6.63667 49.2867 16.8133 52.3967C14.4633 62.77 15.5067 71.0234 20.1067 73.6634C21.1667 74.2834 22.4067 74.5767 23.7733 74.5767C28.26 74.5767 34.13 71.38 40.0667 65.8367C46 71.3467 51.87 74.51 56.3567 74.51C57.6437 74.5372 58.9148 74.222 60.04 73.5967C64.6233 70.9567 65.65 62.7234 63.2867 52.3834C73.3967 49.27 80 44.2467 80 38.9634ZM58.7667 28.0867C58.1333 30.2662 57.3992 32.4152 56.5667 34.5267C55.2039 31.8759 53.7075 29.2959 52.0833 26.7967C54.4 27.14 56.6333 27.5634 58.77 28.0867H58.7667ZM51.3 45.4534C50.03 47.6534 48.7233 49.7434 47.37 51.6834C42.4775 52.1146 37.5568 52.1202 32.6633 51.7C29.8565 47.6906 27.4018 43.4459 25.3267 39.0134C27.3986 34.5704 29.8429 30.3107 32.6333 26.28C37.5246 25.8479 42.4442 25.8412 47.3367 26.26C48.69 28.2 50.0133 30.2734 51.2833 32.46C52.5233 34.5934 53.65 36.76 54.6767 38.9467C53.6386 41.1599 52.5121 43.3305 51.3 45.4534ZM56.5667 43.3334C57.4467 45.5167 58.2 47.7034 58.8167 49.8234C56.6833 50.3467 54.43 50.7867 52.1 51.1267C53.7175 48.6048 55.2082 46.0038 56.5667 43.3334ZM40.0333 60.7334C38.5167 59.1667 37 57.4234 35.5 55.5134C36.9667 55.58 38.4667 55.63 39.9833 55.63C41.5167 55.63 43.0333 55.5967 44.5167 55.5134C43.05 57.4234 41.5333 59.1667 40.0333 60.7334ZM27.9 51.1267C25.6525 50.8011 23.4212 50.3717 21.2133 49.84C21.8167 47.7367 22.5667 45.5667 23.4133 43.4C24.0833 44.7 24.7867 46.0067 25.5533 47.3134C26.32 48.6167 27.1 49.89 27.9 51.1267ZM39.95 17.1934C41.4667 18.76 42.9833 20.5034 44.4833 22.4134C43.0167 22.3467 41.5167 22.2967 40 22.2967C38.4667 22.2967 36.95 22.33 35.4667 22.4134C36.9333 20.5034 38.45 18.76 39.95 17.1934ZM27.8833 26.8C26.2662 29.3165 24.7755 31.9119 23.4167 34.5767C22.5607 32.4516 21.8098 30.2856 21.1667 28.0867C23.3 27.58 25.5533 27.14 27.8833 26.8ZM13.1267 47.2134C7.35333 44.7534 3.62 41.5234 3.62 38.9634C3.62 36.4034 7.35333 33.1567 13.1267 30.7134C14.5267 30.11 16.06 29.57 17.6433 29.0667C18.5733 32.26 19.7967 35.5867 21.31 38.9967C19.8812 42.204 18.6729 45.505 17.6933 48.8767C16.1448 48.3972 14.6208 47.8421 13.1267 47.2134ZM21.9 70.5134C19.6833 69.2467 18.72 64.4 19.47 58.1734C19.65 56.64 19.9433 55.0234 20.3033 53.3767C23.4967 54.16 26.9867 54.7634 30.6567 55.1567C32.7339 58.0223 35.0001 60.7462 37.44 63.31C32.1233 68.25 27.1333 70.9567 23.74 70.9567C23.0998 70.9637 22.4678 70.8126 21.9 70.5167V70.5134ZM60.58 58.09C61.3467 64.32 60.4 69.1634 58.1967 70.45C57.71 70.7434 57.0733 70.8734 56.3233 70.8734C52.9467 70.8734 47.94 68.1834 42.6233 63.2734C44.9067 60.88 47.19 58.1567 49.36 55.14C52.8539 54.7821 56.3188 54.1829 59.73 53.3467C60.1067 54.9934 60.3967 56.5734 60.58 58.09ZM66.8567 47.2134C65.4567 47.8167 63.9233 48.3567 62.34 48.86C61.3432 45.4711 60.1182 42.1535 58.6733 38.93C60.1733 35.54 61.3767 32.23 62.29 29.05C63.9067 29.5534 65.4367 30.11 66.8733 30.7134C72.6467 33.1734 76.38 36.4034 76.38 38.9634C76.3633 41.5234 72.63 44.77 66.8567 47.2134Z" fill="#00DF5E"/>
<path d="M39.9828 46.4164C41.9596 46.4164 43.8554 45.6312 45.2531 44.2334C46.6509 42.8356 47.4362 40.9398 47.4362 38.9631C47.4362 36.9864 46.6509 35.0906 45.2531 33.6928C43.8554 32.295 41.9596 31.5098 39.9828 31.5098C38.0061 31.5098 36.1103 32.295 34.7125 33.6928C33.3148 35.0906 32.5295 36.9864 32.5295 38.9631C32.5295 40.9398 33.3148 42.8356 34.7125 44.2334C36.1103 45.6312 38.0061 46.4164 39.9828 46.4164Z" fill="#00DF5E"/>
</svg>
