<svg width="80" height="80" viewBox="0 0 80 80" fill="none" xmlns="http://www.w3.org/2000/svg">
<path d="M20 31.9792C22.6659 21.2855 29.3341 15.9375 40 15.9375C56 15.9375 58 27.9687 66 29.9739C71.3341 31.3114 76 29.3062 80 23.9583C77.3341 34.652 70.6659 40 60 40C44 40 42 27.9688 34 25.9636C28.6659 24.6261 24 26.6313 20 31.9792ZM0 56.0417C2.66594 45.348 9.33406 40 20 40C36 40 38 52.0312 46 54.0364C51.3341 55.3739 56 53.3688 60 48.0208C57.3341 58.7145 50.6659 64.0625 40 64.0625C24 64.0625 22 52.0312 14 50.0261C8.66594 48.6886 4 50.6937 0 56.0417Z" fill="#00DF5E"/>
</svg>
