<svg width="80" height="49" viewBox="0 0 80 49" fill="none" xmlns="http://www.w3.org/2000/svg">
<g clip-path="url(#clip0_13190_155)">
<path d="M18.8766 12.5877H33.9653V13.787H20.2597V22.8131H33.1481V24.0123H20.2597V33.9222H34.1225V35.1214H18.8766V12.5877ZM35.3172 12.5877H36.9203L44.0245 22.4975L51.2859 12.5875L61.1627 0L44.9361 23.5391L53.2978 35.1214H51.6317L44.0245 24.5805L36.3858 35.1214H34.7513L43.1758 23.5389L35.317 12.5877H35.3172ZM53.895 13.787V12.5875H71.09V13.7869H63.1683V35.1213H61.7852V13.787H53.895ZM0 12.5875H1.72891L25.5695 48.263L15.7175 35.1213L1.44594 14.2919L1.38313 35.1216H0V12.5875ZM70.9506 33.56C70.668 33.56 70.4561 33.3413 70.4561 33.0581C70.4561 32.7753 70.668 32.5563 70.9506 32.5563C71.2366 32.5563 71.4452 32.7752 71.4452 33.0581C71.4452 33.3411 71.2366 33.56 70.9506 33.56ZM72.3097 32.2397H73.0498C73.0598 32.6405 73.3525 32.91 73.7831 32.91C74.2642 32.91 74.5367 32.6203 74.5367 32.078V28.642H75.2903V32.0813C75.2903 33.0581 74.7252 33.6208 73.7898 33.6208C72.9117 33.6208 72.3097 33.075 72.3097 32.2395V32.2397ZM76.2759 32.1959H77.0228C77.0867 32.6573 77.5375 32.9503 78.1869 32.9503C78.7923 32.9503 79.2364 32.637 79.2364 32.2059C79.2364 31.8355 78.9538 31.6131 78.3112 31.4616L77.6855 31.31C76.8073 31.1044 76.4072 30.68 76.4072 29.9659C76.4072 29.1003 77.1136 28.5242 78.1733 28.5242C79.1589 28.5242 79.8789 29.1002 79.9227 29.9187H79.1892C79.1186 29.4708 78.7283 29.1911 78.1631 29.1911C77.5678 29.1911 77.1709 29.4775 77.1709 29.9153C77.1709 30.2622 77.4264 30.4611 78.0589 30.6092L78.5938 30.7406C79.5895 30.9731 80 31.3773 80 32.1083C80 33.038 79.2802 33.6208 78.1297 33.6208C77.0531 33.6208 76.3297 33.0648 76.2759 32.1958V32.1959Z" fill="#00DF5E"/>
</g>
<defs>
<clipPath id="clip0_13190_155">
<rect width="80" height="48.2812" fill="white"/>
</clipPath>
</defs>
</svg>
