<svg width="40" height="40" viewBox="0 0 40 40" fill="none" xmlns="http://www.w3.org/2000/svg">
<path d="M4.79998 40C5.08616 39.5465 5.35098 39.1196 5.62007 38.6928C6.8972 36.6563 8.1786 34.6243 9.45146 32.5878C9.51126 32.49 9.5497 32.3522 9.5497 32.2365C9.55397 24.0774 9.55397 15.9182 9.55824 7.759C9.55824 7.60783 9.52834 7.48333 9.45146 7.35438C8.0291 4.95331 6.61102 2.55225 5.18867 0.151178C5.16304 0.106714 5.13741 0.0578035 5.10324 0C10.3271 0 15.5338 0 20.7619 0C20.7619 5.00222 20.7619 9.99555 20.7619 14.9933C20.7619 19.9911 20.7619 24.9844 20.7619 30C27.1689 30 33.5674 30 40 30C39.9445 30.08 39.9103 30.1334 39.8719 30.1823C37.5055 33.4149 35.1392 36.6563 32.7729 39.8977C32.7046 39.9911 32.632 39.9956 32.5423 39.9956C28.9373 39.9956 25.3365 39.9956 21.7315 39.9956C16.1703 39.9956 10.6047 39.9956 5.04345 39.9956C4.97083 40 4.90249 40 4.79998 40ZM10.8183 3.32148C10.8567 3.39262 10.8824 3.44153 10.908 3.48599C11.4974 4.48199 12.0869 5.48244 12.672 6.47843C12.7148 6.55402 12.7447 6.65185 12.7447 6.74077C12.7489 15.5847 12.7489 24.4242 12.7447 33.2681C12.7447 33.357 12.7148 33.4549 12.6678 33.5305C12.0954 34.4553 11.5145 35.3713 10.9379 36.2917C10.8653 36.4073 10.7927 36.5318 10.7072 36.6741C10.7927 36.6741 10.8439 36.6741 10.8994 36.6741C17.5841 36.6741 24.2687 36.6741 30.9533 36.6785C31.0644 36.6785 31.137 36.6474 31.2053 36.5496C31.8119 35.7181 32.4184 34.8866 33.0292 34.0551C33.2 33.8239 33.3666 33.5883 33.5546 33.3259C28.2069 33.3259 22.8891 33.3259 17.5499 33.3259C17.5499 23.3126 17.5499 13.317 17.5499 3.32148C15.3074 3.32148 13.0778 3.32148 10.8183 3.32148Z" fill="#F9F9F9"/>
<path d="M24 26.6668C24 25.5355 24 4.50528 24 3.33344C28.1414 4.33852 31.4895 6.80842 33.9151 10.9054C36.7621 15.71 37.4416 21.0013 36.2193 26.6668C35.2058 26.6668 34.2264 26.6668 33.2432 26.6668C31.1334 26.6668 31.1334 26.6668 28.4518 26.6668C24.6818 26.6668 27.7593 26.6668 24 26.6668Z" fill="#F9F9F9"/>
<path d="M6.4 33.3334C-2.30866 25.8329 -1.95619 15.4725 6.4 8.33344C6.4 16.6632 6.4 24.9824 6.4 33.3334Z" fill="#F9F9F9"/>
</svg>
