<svg width="149" height="40" viewBox="0 0 149 40" fill="none" xmlns="http://www.w3.org/2000/svg">
<g clip-path="url(#clip0_32427_20)">
<path d="M98.7405 0V29.0443C102.323 29.211 105.896 29.4125 109.459 29.6501V35.8081C103.808 35.4313 98.1511 35.1453 92.4906 34.9504V0H98.7405ZM148.405 0.00347826L140.267 18.8713L148.403 39.8678L148.394 39.8716C146.022 39.5341 143.647 39.213 141.271 38.9084L136.702 27.1241L132.089 37.8145C129.903 37.573 127.714 37.3449 125.52 37.1304L133.454 18.7449L126.188 0.00376812H132.949L137.017 10.4919L141.541 0.00347826H148.405ZM71.0408 34.6452V0.00318841H88.4871V6.21652H77.2906V14.2687H85.7622V20.4267H77.2906V34.6441L71.0408 34.6452ZM47.7037 6.21681V0.00289855H67.0341V6.21652H60.4935V34.8136C58.4074 34.8687 56.3237 34.933 54.2442 35.0116V6.21681H47.7037ZM26.3379 36.8017V0.00405797H43.6973V6.2171H32.5868V14.6333C35.1393 14.6006 38.7686 14.5638 41.0266 14.569V20.7275C38.2002 20.6928 35.0097 20.7664 32.5868 20.7904V30.1133C36.2876 29.8217 39.9913 29.5686 43.6973 29.3539V35.5125C37.9041 35.8467 32.1168 36.2767 26.3379 36.8023V36.8017ZM14.0779 22.5664L14.0776 0.00289855H20.3274V37.3826C18.0428 37.6174 15.7622 37.8675 13.486 38.1316L6.24859 17.3403V39.022C4.16134 39.2939 2.07815 39.5771 -0.000976562 39.873V0.00347826H5.93844L14.0776 22.5664H14.0779ZM114.615 36.1794V0.00347826H120.865V36.6957C118.785 36.5101 116.702 36.3391 114.615 36.1797V36.1794Z" fill="#F9F9F9"/>
</g>
<defs>
<clipPath id="clip0_32427_20">
<rect width="148.406" height="40" fill="white"/>
</clipPath>
</defs>
</svg>
