<svg width="32" height="32" viewBox="0 0 32 32" fill="none" xmlns="http://www.w3.org/2000/svg">
<path d="M22.6666 2.66669H9.33329C5.65139 2.66669 2.66663 5.65146 2.66663 9.33335V22.6667C2.66663 26.3486 5.65139 29.3334 9.33329 29.3334H22.6666C26.3485 29.3334 29.3333 26.3486 29.3333 22.6667V9.33335C29.3333 5.65146 26.3485 2.66669 22.6666 2.66669Z" stroke="#F9F9F9" stroke-width="2" stroke-linecap="round" stroke-linejoin="round"/>
<path d="M21.3334 15.16C21.4979 16.2696 21.3084 17.4029 20.7917 18.3987C20.275 19.3944 19.4575 20.2019 18.4555 20.7062C17.4535 21.2106 16.3179 21.3861 15.2104 21.2079C14.1029 21.0297 13.0797 20.5068 12.2865 19.7135C11.4932 18.9203 10.9703 17.8971 10.7921 16.7896C10.6139 15.682 10.7894 14.5465 11.2938 13.5445C11.7981 12.5424 12.6056 11.725 13.6013 11.2083C14.5971 10.6916 15.7304 10.5021 16.84 10.6666C17.9719 10.8345 19.0198 11.3619 19.8289 12.1711C20.6381 12.9802 21.1655 14.0281 21.3334 15.16Z" stroke="#F9F9F9" stroke-width="2" stroke-linecap="round" stroke-linejoin="round"/>
<path d="M23.3334 8.66669H23.3467" stroke="#F9F9F9" stroke-width="2" stroke-linecap="round" stroke-linejoin="round"/>
</svg>
