<svg width="42" height="58" viewBox="0 0 42 58" fill="none" xmlns="http://www.w3.org/2000/svg">
<path fill-rule="evenodd" clip-rule="evenodd" d="M23.0584 26.2017L23.2531 25.8401C25.2281 26.9898 29.8011 29.7511 32.2935 31.5981C32.2749 33.1558 32.1099 37.2615 31.598 41.2225C31.3662 43.1975 30.4131 48.0932 28.4548 51.8762C29.5767 50.3834 32.0821 46.2295 33.128 41.5563C33.4896 40.2304 34.3129 36.249 34.7135 30.9305C32.5809 29.6973 27.3477 26.8637 23.4757 25.395L23.7538 24.8109C26.6189 25.599 33.3115 27.5981 37.1613 29.2893C37.0779 31.2921 36.5828 36.5494 35.2698 41.5563C34.5915 44.1433 32.7218 50.8025 27.4256 57.1892C27.4986 57.1138 27.5874 57.0243 27.6916 56.9194C28.818 55.7843 31.7393 52.8406 35.854 46.4242C37.9124 42.6134 39.2754 38.2184 41 27.7594C36.9388 26.452 31.4033 25.0056 23.9207 24.2267L24.1432 23.7816C26.9249 23.6333 33.4228 23.5313 37.1613 24.3102C37.5878 21.4636 37.4339 14.8581 34.0737 11.2086C34.8155 13.2392 36.1989 18.274 35.1307 22.1683C32.414 22.1497 26.4298 22.2629 24.2267 22.8637L23.8651 22.3908C25.497 21.4173 29.2225 19.3867 31.0695 19.0529C31.0756 19.0084 31.0817 18.9636 31.0878 18.9185C31.6182 15.0173 32.4509 8.89213 26.8136 1C28.1766 3.80946 30.3797 10.5911 28.9555 17.6899L23.42 21.7232L23.0028 21.1391L24.6996 19.3867C24.3936 18.886 23.4812 17.7677 22.2796 17.3004C22.8544 17.9866 23.6314 19.5035 22.1405 20.0821H19.943C19.3032 19.9152 18.3797 19.1252 19.8039 17.3004C19.2197 17.5693 17.9346 18.363 17.4673 19.3867L18.7469 20.9166L18.4687 21.4729L13.128 17.7177C12.4974 15.0009 11.9819 7.85953 14.9638 1.02782C14.7239 1.46958 14.493 1.89075 14.2713 2.29513C11.254 7.79797 9.94199 10.1909 10.8748 19.0529C11.9226 19.2754 14.758 20.2434 17.7177 22.3352L17.5508 22.6968C15.0102 22.4557 9.31154 22.0236 6.84144 22.2239C6.41493 20.2397 6.02364 15.2587 7.87065 11.2086C4.94993 15.3255 4.36579 18.3296 4.86648 24.3936C6.97126 23.9856 12.4548 23.2921 17.5508 23.7816L17.7177 24.2267C13.9717 24.6996 5.38387 26.0682 1 27.7594C1.12275 28.4168 1.24191 29.0614 1.35873 29.6933C2.43312 35.5051 3.30885 40.2423 4.94993 43.9764C7.73175 49.326 10.1071 52.0743 12.9967 55.4176C13.4877 55.9857 13.9936 56.571 14.5188 57.1892C10.0403 50.9861 5.40056 43.1975 4.86648 29.2893C7.81502 28.1117 14.63 25.5675 18.3018 24.8109L18.5522 25.395C15.548 26.6653 9.06676 29.5396 7.39778 30.8748C7.41619 31.1223 7.43432 31.3708 7.45254 31.6205C7.87448 37.4041 8.34085 43.7966 13.4339 51.8762C11.8484 48.3992 10.057 44.4381 9.67872 31.5981C11.8762 30.1238 16.7663 26.9082 18.7469 25.8401L18.9694 26.2017C17.968 26.8415 15.6426 28.4492 14.3519 29.7622C14.2684 30.3 14.1516 32.3046 14.3519 36.0209C15.3069 37.7548 17.9736 41.5063 21 42.6412C22.5485 42.0107 26.0292 39.8039 27.5647 36.0209C27.6852 35.1307 27.8985 32.644 27.7872 29.8178C26.86 28.974 24.6161 27.0695 23.0584 26.2017ZM18.0516 27.6481L18.04 27.6577L18.04 27.6577C17.4497 28.1449 16.1115 29.2494 15.4925 29.9569C15.5018 31.1159 15.5871 33.7622 15.7428 34.9638C16.4382 36.3361 18.5356 39.3644 21.028 40.4993C22.3075 39.8317 25.2783 37.701 26.2574 34.9638C26.2625 34.9103 26.2681 34.8519 26.2741 34.789C26.3671 33.8158 26.5634 31.7612 26.5634 30.0681C26.0164 29.484 24.7498 28.1822 24.0599 27.6481C24.403 28.0932 25.2115 29.2003 25.7011 30.0681C25.7475 30.6152 25.717 31.9703 25.5342 33.1279C25.3673 34.185 23.9487 37.1057 21.028 38.3296C19.7206 37.7905 17.0391 35.9954 16.5495 33.1279C16.4661 32.7385 16.3159 31.6648 16.3826 30.1516C16.6764 29.7011 17.1909 28.9334 17.6056 28.3146C17.7798 28.0546 17.9364 27.8209 18.0516 27.6481Z" fill="#F9F9F9"/>
<path d="M23.2531 25.8401L23.3789 25.624L23.1555 25.494L23.033 25.7215L23.2531 25.8401ZM23.0584 26.2017L22.8383 26.0832L22.7215 26.3001L22.9367 26.4201L23.0584 26.2017ZM32.2935 31.5981L32.5434 31.601L32.545 31.4733L32.4423 31.3972L32.2935 31.5981ZM31.598 41.2225L31.3501 41.1905L31.3498 41.1934L31.598 41.2225ZM28.4548 51.8762L28.2328 51.7613L28.6546 52.0264L28.4548 51.8762ZM33.128 41.5563L32.8865 41.4905L32.884 41.5017L33.128 41.5563ZM34.7135 30.9305L34.9628 30.9492L34.9746 30.7927L34.8386 30.714L34.7135 30.9305ZM23.4757 25.395L23.2499 25.2875L23.1333 25.5325L23.387 25.6287L23.4757 25.395ZM23.7538 24.8109L23.8201 24.5698L23.6182 24.5143L23.5281 24.7034L23.7538 24.8109ZM37.1613 29.2893L37.4111 29.2997L37.4182 29.1291L37.2619 29.0604L37.1613 29.2893ZM35.2698 41.5563L35.028 41.4929L35.2698 41.5563ZM27.4256 57.1892L27.2331 57.0296L27.6051 57.3631L27.4256 57.1892ZM27.6916 56.9194L27.869 57.0955H27.869L27.6916 56.9194ZM35.854 46.4242L36.0644 46.5592L36.0695 46.5513L36.0739 46.543L35.854 46.4242ZM41 27.7594L41.2467 27.8001L41.2817 27.5875L41.0766 27.5214L41 27.7594ZM23.9207 24.2267L23.6971 24.1149L23.5356 24.438L23.8948 24.4754L23.9207 24.2267ZM24.1432 23.7816L24.1299 23.532L23.9847 23.5397L23.9196 23.6698L24.1432 23.7816ZM37.1613 24.3102L37.1103 24.5549L37.3694 24.6089L37.4086 24.3472L37.1613 24.3102ZM34.0737 11.2086L34.2576 11.0393L33.8389 11.2944L34.0737 11.2086ZM35.1307 22.1683L35.129 22.4183L35.321 22.4196L35.3718 22.2344L35.1307 22.1683ZM24.2267 22.8637L24.0281 23.0156L24.1303 23.1491L24.2925 23.1049L24.2267 22.8637ZM23.8651 22.3908L23.737 22.1761L23.4961 22.3199L23.6665 22.5427L23.8651 22.3908ZM31.0695 19.0529L31.114 19.2989L31.2928 19.2666L31.3173 19.0865L31.0695 19.0529ZM31.0878 18.9185L31.3355 18.9522V18.9522L31.0878 18.9185ZM26.8136 1L27.0171 0.85469L26.5887 1.10912L26.8136 1ZM28.9555 17.6899L29.1027 17.8919L29.1814 17.8345L29.2006 17.739L28.9555 17.6899ZM23.42 21.7232L23.2166 21.8685L23.3633 22.0739L23.5672 21.9253L23.42 21.7232ZM23.0028 21.1391L22.8232 20.9652L22.6782 21.1149L22.7993 21.2844L23.0028 21.1391ZM24.6996 19.3867L24.8792 19.5606L25.0138 19.4215L24.9129 19.2563L24.6996 19.3867ZM22.2796 17.3004L22.3702 17.0674L22.0879 17.461L22.2796 17.3004ZM22.1405 20.0821V20.3321H22.1873L22.2309 20.3151L22.1405 20.0821ZM19.943 20.0821L19.8799 20.324L19.9109 20.3321H19.943V20.0821ZM19.8039 17.3004L20.001 17.4542L19.6994 17.0733L19.8039 17.3004ZM17.4673 19.3867L17.2399 19.2828L17.1745 19.4262L17.2755 19.547L17.4673 19.3867ZM18.7469 20.9166L18.9705 21.0284L19.0437 20.8818L18.9386 20.7562L18.7469 20.9166ZM18.4687 21.4729L18.3249 21.6774L18.5625 21.8444L18.6923 21.5847L18.4687 21.4729ZM13.128 17.7177L12.8844 17.7742L12.906 17.8672L12.9842 17.9222L13.128 17.7177ZM14.9638 1.02782L15.193 1.12783L14.7441 0.908502L14.9638 1.02782ZM14.2713 2.29513L14.4905 2.41532V2.41532L14.2713 2.29513ZM10.8748 19.0529L10.6262 19.079L10.6452 19.2597L10.8229 19.2974L10.8748 19.0529ZM17.7177 22.3352L17.9447 22.44L18.0318 22.2511L17.862 22.131L17.7177 22.3352ZM17.5508 22.6968L17.5271 22.9457L17.7035 22.9624L17.7778 22.8016L17.5508 22.6968ZM6.84144 22.2239L6.59703 22.2765L6.6431 22.4908L6.86165 22.4731L6.84144 22.2239ZM7.87065 11.2086L8.09811 11.3124L7.66675 11.064L7.87065 11.2086ZM4.86648 24.3936L4.61733 24.4142L4.64028 24.6921L4.91405 24.639L4.86648 24.3936ZM17.5508 23.7816L17.7848 23.6939L17.73 23.5477L17.5747 23.5328L17.5508 23.7816ZM17.7177 24.2267L17.749 24.4747L18.0628 24.4351L17.9517 24.1389L17.7177 24.2267ZM1 27.7594L0.910017 27.5262L0.716096 27.601L0.754247 27.8053L1 27.7594ZM1.35873 29.6933L1.11289 29.7387L1.35873 29.6933ZM4.94993 43.9764L4.72106 44.077L4.72435 44.0844L4.72813 44.0917L4.94993 43.9764ZM12.9967 55.4176L12.8075 55.5811L12.9967 55.4176ZM14.5188 57.1892L14.3283 57.351L14.7215 57.0428L14.5188 57.1892ZM4.86648 29.2893L4.77376 29.0571L4.60989 29.1226L4.61667 29.2989L4.86648 29.2893ZM18.3018 24.8109L18.5316 24.7124L18.4512 24.5248L18.2514 24.566L18.3018 24.8109ZM18.5522 25.395L18.6495 25.6253L18.8809 25.5274L18.7819 25.2965L18.5522 25.395ZM7.39778 30.8748L7.2416 30.6796L7.13868 30.762L7.14847 30.8934L7.39778 30.8748ZM7.45254 31.6205L7.70187 31.6023L7.45254 31.6205ZM13.4339 51.8762L13.2224 52.0095L13.6614 51.7725L13.4339 51.8762ZM9.67872 31.5981L9.53944 31.3905L9.42476 31.4674L9.42883 31.6054L9.67872 31.5981ZM18.7469 25.8401L18.9598 25.709L18.836 25.5079L18.6282 25.62L18.7469 25.8401ZM18.9694 26.2017L19.104 26.4123L19.3112 26.28L19.1823 26.0707L18.9694 26.2017ZM14.3519 29.7622L14.1736 29.5869L14.1172 29.6443L14.1048 29.7238L14.3519 29.7622ZM14.3519 36.0209L14.1022 36.0343L14.1053 36.0914L14.1329 36.1415L14.3519 36.0209ZM21 42.6412L20.9122 42.8753L21.0037 42.9096L21.0943 42.8727L21 42.6412ZM27.5647 36.0209L27.7963 36.1149L27.8082 36.0857L27.8124 36.0544L27.5647 36.0209ZM27.7872 29.8178L28.037 29.808L28.0329 29.7034L27.9555 29.6329L27.7872 29.8178ZM18.04 27.6577L18.1787 27.8657L18.1893 27.8586L18.1992 27.8505L18.04 27.6577ZM18.0516 27.6481L18.2596 27.7868L17.8925 27.4553L18.0516 27.6481ZM18.04 27.6577L17.9013 27.4497L17.8907 27.4567L17.8809 27.4649L18.04 27.6577ZM15.4925 29.9569L15.3043 29.7922L15.2417 29.8638L15.2425 29.9589L15.4925 29.9569ZM15.7428 34.9638L15.4949 34.996L15.5004 35.0385L15.5198 35.0768L15.7428 34.9638ZM21.028 40.4993L20.9244 40.7268L21.0354 40.7774L21.1436 40.7209L21.028 40.4993ZM26.2574 34.9638L26.4928 35.048L26.5034 35.0186L26.5063 34.9874L26.2574 34.9638ZM26.2741 34.789L26.523 34.8128L26.2741 34.789ZM26.5634 30.0681H26.8134V29.9693L26.7459 29.8972L26.5634 30.0681ZM24.0599 27.6481L24.213 27.4504L23.8619 27.8007L24.0599 27.6481ZM25.7011 30.0681L25.9502 30.047L25.9456 29.9927L25.9189 29.9453L25.7011 30.0681ZM25.5342 33.1279L25.7812 33.1669L25.5342 33.1279ZM21.028 38.3296L20.9326 38.5607L21.0287 38.6004L21.1246 38.5602L21.028 38.3296ZM16.5495 33.1279L16.7962 33.0858L16.794 33.0756L16.5495 33.1279ZM16.3826 30.1516L16.1732 30.015L16.1359 30.0723L16.1329 30.1406L16.3826 30.1516ZM17.6056 28.3146L17.8132 28.4538L17.6056 28.3146ZM23.033 25.7215L22.8383 26.0832L23.2785 26.3202L23.4732 25.9586L23.033 25.7215ZM32.4423 31.3972C29.9376 29.541 25.3537 26.7737 23.3789 25.624L23.1273 26.0561C25.1025 27.206 29.6646 29.9611 32.1446 31.7989L32.4423 31.3972ZM31.846 41.2546C32.3594 37.2815 32.5248 33.1658 32.5434 31.601L32.0435 31.5951C32.025 33.1458 31.8604 37.2414 31.3501 41.1905L31.846 41.2546ZM28.6768 51.9912C30.6545 48.1707 31.6128 43.2418 31.8463 41.2517L31.3498 41.1934C31.1197 43.1532 30.1717 48.0157 28.2328 51.7613L28.6768 51.9912ZM32.884 41.5017C31.8478 46.1315 29.3617 50.2534 28.2549 51.726L28.6546 52.0264C29.7918 50.5134 32.3163 46.3275 33.3719 41.6109L32.884 41.5017ZM34.4642 30.9117C34.0646 36.2168 33.2436 40.1823 32.8868 41.4906L33.3691 41.6221C33.7356 40.2786 34.5612 36.2811 34.9628 30.9492L34.4642 30.9117ZM23.387 25.6287C27.2395 27.09 32.4584 29.9152 34.5883 31.1469L34.8386 30.714C32.7034 29.4793 27.4559 26.6374 23.5643 25.1612L23.387 25.6287ZM23.5281 24.7034L23.2499 25.2875L23.7014 25.5025L23.9795 24.9183L23.5281 24.7034ZM37.2619 29.0604C33.3938 27.3611 26.6855 25.358 23.8201 24.5698L23.6875 25.0519C26.5523 25.84 33.2293 27.835 37.0608 29.5182L37.2619 29.0604ZM35.5116 41.6198C36.8302 36.5913 37.3271 31.3155 37.4111 29.2997L36.9115 29.2789C36.8286 31.2686 36.3353 36.5075 35.028 41.4929L35.5116 41.6198ZM27.618 57.3488C32.9494 50.9198 34.8303 44.218 35.5116 41.6198L35.028 41.4929C34.3526 44.0685 32.4943 50.6853 27.2331 57.0296L27.618 57.3488ZM27.5141 56.7433C27.4103 56.8479 27.3203 56.9385 27.246 57.0152L27.6051 57.3631C27.6769 57.2891 27.7645 57.2008 27.869 57.0955L27.5141 56.7433ZM35.6435 46.2893C31.5407 52.6872 28.6316 55.6172 27.5141 56.7433L27.869 57.0955C29.0044 55.9514 31.9379 52.994 36.0644 46.5592L35.6435 46.2893ZM40.7533 27.7187C39.0298 38.1713 37.6719 42.5324 35.634 46.3054L36.0739 46.543C38.1528 42.6943 39.521 38.2654 41.2467 27.8001L40.7533 27.7187ZM23.8948 24.4754C31.3573 25.2521 36.8756 26.6943 40.9234 27.9974L41.0766 27.5214C37.002 26.2097 31.4494 24.759 23.9466 23.9781L23.8948 24.4754ZM23.9196 23.6698L23.6971 24.1149L24.1443 24.3385L24.3669 23.8934L23.9196 23.6698ZM37.2123 24.0654C33.4385 23.2792 26.9112 23.3837 24.1299 23.532L24.1566 24.0313C26.9386 23.8829 33.4071 23.7834 37.1103 24.5549L37.2123 24.0654ZM33.8898 11.378C35.523 13.1518 36.3895 15.6606 36.7909 18.1011C37.1918 20.5385 37.1235 22.8754 36.9141 24.2731L37.4086 24.3472C37.6257 22.8984 37.6937 20.5092 37.2842 18.0199C36.8753 15.5336 35.9846 12.915 34.2576 11.0393L33.8898 11.378ZM35.3718 22.2344C35.9191 20.2391 35.8356 17.9671 35.5281 15.9519C35.2201 13.9334 34.6841 12.1509 34.3085 11.1228L33.8389 11.2944C34.2051 12.297 34.7317 14.0471 35.0338 16.0273C35.3364 18.0106 35.4105 20.2032 34.8896 22.1022L35.3718 22.2344ZM24.2925 23.1049C25.3633 22.8128 27.3829 22.6347 29.498 22.5334C31.6037 22.4326 33.7743 22.409 35.129 22.4183L35.1324 21.9183C33.7705 21.909 31.5906 21.9327 29.4741 22.034C27.3672 22.1349 25.2931 22.3137 24.1609 22.6225L24.2925 23.1049ZM23.6665 22.5427L24.0281 23.0156L24.4253 22.7118L24.0637 22.239L23.6665 22.5427ZM31.0251 18.8068C30.063 18.9807 28.641 19.5873 27.2764 20.2575C25.9031 20.9321 24.5577 21.6865 23.737 22.1761L23.9932 22.6055C24.8043 22.1216 26.1377 21.3739 27.4969 20.7063C28.8648 20.0344 30.2291 19.4588 31.114 19.2989L31.0251 18.8068ZM30.8401 18.8848C30.8339 18.9299 30.8278 18.9747 30.8218 19.0192L31.3173 19.0865C31.3233 19.042 31.3294 18.9973 31.3355 18.9522L30.8401 18.8848ZM26.6102 1.14531C29.4062 5.05976 30.5917 8.52659 31.0161 11.4913C31.4409 14.459 31.1051 16.9351 30.8401 18.8849L31.3355 18.9522C31.6008 17.0007 31.9466 14.4635 31.511 11.4204C31.075 8.37418 29.8583 4.83237 27.0171 0.85469L26.6102 1.14531ZM29.2006 17.739C30.6391 10.569 28.4161 3.73022 27.0386 0.890877L26.5887 1.10912C27.9372 3.88869 30.1203 10.6132 28.7104 17.6407L29.2006 17.739ZM23.5672 21.9253L29.1027 17.8919L28.8083 17.4878L23.2728 21.5212L23.5672 21.9253ZM22.7993 21.2844L23.2166 21.8685L23.6235 21.5779L23.2062 20.9938L22.7993 21.2844ZM24.52 19.2127L22.8232 20.9652L23.1824 21.313L24.8792 19.5606L24.52 19.2127ZM22.1889 17.5334C23.3192 17.973 24.1948 19.0401 24.4863 19.517L24.9129 19.2563C24.5924 18.7318 23.6432 17.5625 22.3702 17.0674L22.1889 17.5334ZM22.2309 20.3151C22.6461 20.154 22.9295 19.9164 23.0915 19.6196C23.2523 19.3249 23.2774 19.001 23.232 18.6949C23.1427 18.093 22.7729 17.5 22.4712 17.1399L22.0879 17.461C22.3611 17.787 22.6672 18.2955 22.7374 18.7683C22.7717 18.9994 22.7475 19.2062 22.6526 19.3801C22.5589 19.5518 22.3803 19.7208 22.05 19.849L22.2309 20.3151ZM19.943 20.3321H22.1405V19.8321H19.943V20.3321ZM19.6068 17.1466C18.8744 18.0851 18.693 18.8237 18.8598 19.3842C19.026 19.9428 19.5085 20.2271 19.8799 20.324L20.0061 19.8402C19.7377 19.7701 19.4385 19.576 19.3391 19.2416C19.2402 18.9093 19.3092 18.3405 20.001 17.4542L19.6068 17.1466ZM17.6947 19.4905C17.9049 19.0301 18.3085 18.6052 18.7474 18.2562C19.1835 17.9094 19.6336 17.654 19.9084 17.5275L19.6994 17.0733C19.3901 17.2157 18.9055 17.4917 18.4362 17.8648C17.9696 18.2358 17.497 18.7196 17.2399 19.2828L17.6947 19.4905ZM18.9386 20.7562L17.6591 19.2263L17.2755 19.547L18.5551 21.0769L18.9386 20.7562ZM18.6923 21.5847L18.9705 21.0284L18.5233 20.8048L18.2451 21.3611L18.6923 21.5847ZM12.9842 17.9222L18.3249 21.6774L18.6125 21.2684L13.2717 17.5132L12.9842 17.9222ZM14.7347 0.927808C11.7265 7.81986 12.2448 15.0182 12.8844 17.7742L13.3715 17.6611C12.7501 14.9836 12.2374 7.8992 15.193 1.12783L14.7347 0.927808ZM14.4905 2.41532C14.7122 2.011 14.9433 1.5894 15.1835 1.14713L14.7441 0.908502C14.5045 1.34976 14.2738 1.7705 14.0521 2.17493L14.4905 2.41532ZM11.1235 19.0267C10.6583 14.6082 10.7559 11.8274 11.3345 9.474C11.9139 7.11754 12.9787 5.17246 14.4905 2.41532L14.0521 2.17493C12.5466 4.92064 11.4467 6.92343 10.849 9.35462C10.2505 11.7889 10.1585 14.6356 10.6262 19.079L11.1235 19.0267ZM17.862 22.131C14.875 20.02 12.0082 19.038 10.9268 18.8083L10.8229 19.2974C11.8369 19.5128 14.641 20.4668 17.5734 22.5394L17.862 22.131ZM17.7778 22.8016L17.9447 22.44L17.4907 22.2304L17.3238 22.592L17.7778 22.8016ZM6.86165 22.4731C9.30548 22.275 14.9807 22.7041 17.5271 22.9457L17.5744 22.4479C15.0397 22.2074 9.3176 21.7723 6.82124 21.9747L6.86165 22.4731ZM7.64319 11.1049C5.76496 15.2234 6.16476 20.2655 6.59703 22.2765L7.08586 22.1714C6.66509 20.2139 6.28232 15.294 8.09811 11.3124L7.64319 11.1049ZM5.11563 24.373C4.86599 21.3496 4.88918 19.1121 5.32961 17.125C5.76894 15.1429 6.62733 13.3932 8.07455 11.3533L7.66675 11.064C6.19325 13.1409 5.29921 14.9516 4.84146 17.0168C4.38481 19.0771 4.36627 21.3736 4.61733 24.4142L5.11563 24.373ZM17.5747 23.5328C12.4475 23.0402 6.93867 23.7373 4.81891 24.1482L4.91405 24.639C7.00384 24.234 12.4621 23.5439 17.5269 24.0305L17.5747 23.5328ZM17.9517 24.1389L17.7848 23.6939L17.3167 23.8694L17.4836 24.3145L17.9517 24.1389ZM1.08998 27.9926C5.44153 26.3139 14.0004 24.948 17.749 24.4747L17.6864 23.9787C13.943 24.4512 5.3262 25.8224 0.910017 27.5262L1.08998 27.9926ZM1.60456 29.6478C1.48775 29.016 1.36855 28.3712 1.24575 27.7135L0.754247 27.8053C0.876949 28.4624 0.996071 29.1068 1.11289 29.7387L1.60456 29.6478ZM5.1788 43.8758C3.55196 40.1741 2.68078 35.4696 1.60456 29.6478L1.11289 29.7387C2.18546 35.5407 3.06574 40.3105 4.72106 44.077L5.1788 43.8758ZM13.1858 55.2541C10.2995 51.9146 7.93971 49.1841 5.17174 43.861L4.72813 44.0917C7.52378 49.468 9.91475 52.2341 12.8075 55.5811L13.1858 55.2541ZM14.7093 57.0273C14.1833 56.4082 13.6767 55.8221 13.1858 55.2541L12.8075 55.5811C13.2986 56.1493 13.8038 56.7338 14.3283 57.351L14.7093 57.0273ZM4.61667 29.2989C5.15323 43.272 9.81961 51.1075 14.3161 57.3355L14.7215 57.0428C10.2611 50.8647 5.64788 43.123 5.1163 29.2797L4.61667 29.2989ZM18.2514 24.566C14.5546 25.3278 7.71974 27.8806 4.77376 29.0571L4.9592 29.5215C7.9103 28.3429 14.7055 25.8072 18.3523 25.0557L18.2514 24.566ZM18.7819 25.2965L18.5316 24.7124L18.072 24.9093L18.3224 25.4935L18.7819 25.2965ZM7.55395 31.0701C7.95171 30.7518 8.65175 30.3311 9.54048 29.8543C10.4246 29.3799 11.481 28.8577 12.5813 28.3365C14.7816 27.2942 17.1496 26.2595 18.6495 25.6253L18.4548 25.1647C16.9506 25.8008 14.5758 26.8384 12.3672 27.8846C11.2631 28.4077 10.1985 28.9338 9.3041 29.4137C8.41431 29.891 7.67834 30.3302 7.2416 30.6796L7.55395 31.0701ZM7.70187 31.6023C7.68366 31.3527 7.66552 31.104 7.64709 30.8563L7.14847 30.8934C7.16687 31.1406 7.18498 31.389 7.2032 31.6387L7.70187 31.6023ZM13.6454 51.7429C8.58653 43.7175 8.12316 37.3769 7.70187 31.6023L7.2032 31.6387C7.6258 37.4313 8.09516 43.8757 13.2224 52.0095L13.6454 51.7429ZM9.42883 31.6054C9.61827 38.0354 10.1618 42.2531 10.8599 45.304C11.559 48.3591 12.4117 50.2371 13.2065 51.98L13.6614 51.7725C12.8706 50.0383 12.0349 48.1972 11.3473 45.1925C10.6588 42.1837 10.1175 38.0008 9.92861 31.5907L9.42883 31.6054ZM18.6282 25.62C16.6347 26.6952 11.7333 29.9186 9.53944 31.3905L9.818 31.8057C12.0191 30.329 16.898 27.1213 18.8655 26.0601L18.6282 25.62ZM19.1823 26.0707L18.9598 25.709L18.534 25.9711L18.7565 26.3327L19.1823 26.0707ZM14.5302 29.9374C15.7997 28.646 18.1046 27.0508 19.104 26.4123L18.8348 25.991C17.8314 26.6321 15.4854 28.2525 14.1736 29.5869L14.5302 29.9374ZM14.6015 36.0074C14.4014 32.2944 14.5197 30.3113 14.5989 29.8005L14.1048 29.7238C14.0172 30.2886 13.9018 32.3148 14.1022 36.0343L14.6015 36.0074ZM21.0878 42.4071C19.6299 41.8604 18.239 40.6734 17.0852 39.3886C15.9345 38.1074 15.0399 36.7518 14.5709 35.9003L14.1329 36.1415C14.6189 37.0238 15.5351 38.411 16.7132 39.7227C17.888 41.0308 19.3436 42.287 20.9122 42.8753L21.0878 42.4071ZM27.333 35.9268C25.8311 39.6273 22.4152 41.795 20.9057 42.4096L21.0943 42.8727C22.6817 42.2263 26.2273 39.9805 27.7963 36.1149L27.333 35.9268ZM27.5374 29.8276C27.6481 32.6385 27.4356 35.1107 27.3169 35.9873L27.8124 36.0544C27.9348 35.1508 28.1489 32.6494 28.037 29.808L27.5374 29.8276ZM22.9367 26.4201C24.4668 27.2725 26.6921 29.1593 27.6189 30.0027L27.9555 29.6329C27.0279 28.7888 24.7654 26.8665 23.1801 25.9833L22.9367 26.4201ZM18.1992 27.8505L18.2107 27.8409L17.8925 27.4553L17.8809 27.4649L18.1992 27.8505ZM18.1787 27.8657L18.1787 27.8657L17.9013 27.4497L17.9013 27.4497L18.1787 27.8657ZM15.6806 30.1215C16.283 29.4331 17.6018 28.3436 18.1991 27.8505L17.8809 27.4649C17.2977 27.9462 15.94 29.0658 15.3043 29.7922L15.6806 30.1215ZM15.9908 34.9317C15.8371 33.7465 15.7518 31.1137 15.7425 29.9549L15.2425 29.9589C15.2518 31.1181 15.337 33.7778 15.4949 34.996L15.9908 34.9317ZM21.1316 40.2718C19.9324 39.7257 18.8129 38.7153 17.9009 37.6573C16.9907 36.6015 16.304 35.5181 15.9658 34.8508L15.5198 35.0768C15.8771 35.7818 16.5868 36.8987 17.5222 37.9838C18.4558 39.0668 19.6312 40.138 20.9244 40.7268L21.1316 40.2718ZM26.022 34.8796C25.5512 36.1959 24.5948 37.3807 23.5846 38.325C22.5758 39.2681 21.5317 39.9545 20.9123 40.2776L21.1436 40.7209C21.8038 40.3765 22.8848 39.6637 23.9261 38.6903C24.966 37.7181 25.9846 36.4689 26.4928 35.048L26.022 34.8796ZM26.0252 34.7652C26.0192 34.8281 26.0136 34.8866 26.0086 34.9402L26.5063 34.9874C26.5114 34.934 26.517 34.8757 26.523 34.8128L26.0252 34.7652ZM26.3134 30.0681C26.3134 31.7472 26.1184 33.7899 26.0252 34.7652L26.523 34.8128C26.6158 33.8416 26.8134 31.7751 26.8134 30.0681H26.3134ZM23.9069 27.8458C24.5783 28.3655 25.8314 29.6522 26.3809 30.239L26.7459 29.8972C26.2013 29.3158 24.9213 27.9988 24.213 27.4504L23.9069 27.8458ZM25.9189 29.9453C25.4204 29.0616 24.6032 27.9433 24.2579 27.4955L23.8619 27.8007C24.2029 28.243 25.0027 29.3389 25.4834 30.191L25.9189 29.9453ZM25.7812 33.1669C25.9666 31.9924 25.9985 30.6169 25.9502 30.047L25.452 30.0892C25.4964 30.6135 25.4674 31.9482 25.2873 33.089L25.7812 33.1669ZM21.1246 38.5602C22.6371 37.9264 23.7556 36.8557 24.5157 35.8135C25.272 34.7768 25.6897 33.7458 25.7812 33.1669L25.2873 33.089C25.2118 33.5671 24.8368 34.5249 24.1118 35.5189C23.3908 36.5073 22.3395 37.5089 20.9313 38.099L21.1246 38.5602ZM16.3031 33.17C16.5594 34.6711 17.3876 35.8819 18.3073 36.7807C19.2263 37.6787 20.2508 38.2796 20.9326 38.5607L21.1233 38.0985C20.4977 37.8405 19.5278 37.2743 18.6568 36.4231C17.7866 35.5727 17.0292 34.4522 16.7959 33.0859L16.3031 33.17ZM16.1329 30.1406C16.0652 31.6732 16.2168 32.7683 16.3051 33.1803L16.794 33.0756C16.7153 32.7087 16.5665 31.6564 16.6324 30.1626L16.1329 30.1406ZM17.3979 28.1754C16.9836 28.7936 16.4681 29.5629 16.1732 30.015L16.592 30.2881C16.8847 29.8393 17.3981 29.0732 17.8132 28.4538L17.3979 28.1754ZM17.8436 27.5094C17.7286 27.6819 17.5722 27.9153 17.3979 28.1754L17.8132 28.4538C17.9874 28.1939 18.1442 27.9599 18.2596 27.7868L17.8436 27.5094Z" fill="#F9F9F9"/>
</svg>
