<svg width="100" height="42" viewBox="0 0 100 42" fill="none" xmlns="http://www.w3.org/2000/svg">
<rect width="100" height="41.4508" fill="#EC111A"/>
<path d="M3.36853 4.14514V37.3058H9.32708L9.58615 22.5389L12.1768 37.3058H15.5447L18.1354 22.5389V37.3058H29.5343L30.3115 32.3835H34.9747L35.7519 37.3058H47.41V26.684H48.7053L51.296 37.3058H57.2545L53.6276 24.8705C55.6694 22.8196 56.6339 21.4444 57.2545 17.6166L60.6224 37.3058H67.8763L72.5395 8.03115V37.3058H83.9385V31.3472H78.4981V23.8343H83.9385V17.6166H78.4981V10.3628H83.9385V4.14514H67.0991L64.2494 25.3887L61.9178 4.14514H55.182L55.7001 9.06742C54.6639 6.47675 51.296 4.14514 49.2235 4.14514H41.1924V33.1607L37.0473 4.14514H28.7571L24.353 34.197V4.14514H16.581L13.7312 20.4664L10.8815 4.14514H3.36853Z" fill="#F9F9F9"/>
<path d="M84.9747 37.3058V4.14514H90.9333V31.6063H96.1146V37.3058H84.9747Z" fill="#F9F9F9"/>
<path d="M32.9017 13.2123L31.0883 26.4247H34.7152L32.9017 13.2123Z" fill="#EC111A"/>
<path d="M47.4095 20.2071V9.84442C49.7956 10.5978 51.2955 11.917 51.2955 15.2848C51.2955 17.6164 49.8354 19.879 47.4095 20.2071Z" fill="#EC111A"/>
</svg>
