<svg width="35" height="39" viewBox="0 0 35 39" fill="none" xmlns="http://www.w3.org/2000/svg">
<g clip-path="url(#clip0_39341_766)">
<path d="M12.8742 7.66542C12.7046 9.5287 19.5248 10.1537 22.5981 10.4359C25.6714 10.718 32.3522 11.3314 32.5218 9.46807C32.6914 7.60479 29.8388 3.95285 25.0837 2.0336C14.5305 -2.227 5.91696 2.39273 3.93547 3.09C3.15961 3.36518 12.9323 7.04277 12.8742 7.66542Z" fill="#DA2535"/>
<path d="M0.0116129 2.55123C-0.127765 4.09269 1.00352 5.45925 2.54131 5.59917C4.07911 5.73909 5.43804 4.6034 5.57742 3.06194C5.7168 1.51814 4.58552 0.153911 3.05004 0.0116581C1.51224 -0.128263 0.153313 1.00743 0.0116129 2.55123Z" fill="#F1F1F1"/>
<path d="M9.87462 18.3412C9.41235 27.8395 15.4102 29.3297 22.2397 29.3297C29.0692 29.3297 34.6048 25.7454 34.6048 18.3412C34.6048 10.937 29.0553 8.00336 22.2281 8.00336C15.3963 8.00336 10.323 9.14605 9.87462 18.3412Z" fill="#F1F1F1"/>
<path d="M11.2992 19.5355C10.8973 29.0338 16.0961 30.5239 22.0104 30.5239C27.9269 30.5239 32.7215 26.9396 32.7215 19.5355C32.7215 12.1336 27.9269 8.54932 22.0104 8.54932C16.0938 8.54932 11.6871 10.3403 11.2992 19.5355Z" fill="#F8C1A5"/>
<path d="M14.1445 21.6529C14.1445 22.3712 15.0946 22.9519 16.2654 22.9519C17.4362 22.9519 18.3863 22.3712 18.3863 21.6529C18.3863 20.9347 17.4362 20.354 16.2654 20.354C15.0946 20.354 14.1445 20.9347 14.1445 21.6529Z" fill="#FBE1DB"/>
<path d="M25.0063 21.6524C25.0063 22.3707 25.9564 22.9514 27.1272 22.9514C28.298 22.9514 29.2481 22.3707 29.2481 21.6524C29.2481 20.9342 28.298 20.3535 27.1272 20.3535C25.9564 20.3535 25.0063 20.9342 25.0063 21.6524Z" fill="#FBE1DB"/>
<path d="M9.02002 20.0808C9.02002 22.1027 10.0398 22.4198 11.2988 22.4198C12.5579 22.4198 13.5777 21.6573 13.5777 20.0808C13.5777 18.5067 12.5579 17.7441 11.2988 17.7441C10.0398 17.7441 9.02002 18.059 9.02002 20.0808Z" fill="#F8C1A5"/>
<path d="M30.4424 20.0813C30.4424 22.1032 31.4622 22.4203 32.7212 22.4203C33.9802 22.4203 35 21.6578 35 20.0813C35 18.5072 33.9802 17.7446 32.7212 17.7446C31.4622 17.7446 30.4424 18.0595 30.4424 20.0813Z" fill="#F8C1A5"/>
<path d="M15.9494 22.18C17.4686 21.7416 19.536 21.6739 21.6151 21.6553V25.4122C21.1365 25.3492 20.7927 25.3095 20.4071 25.4308C17.6591 26.2983 16.7787 25.3655 15.2873 25.2629C14.5904 25.2139 13.271 25.4425 13.271 25.4425C13.271 25.4425 13.5776 22.8656 15.9494 22.18Z" fill="#F0F8FD"/>
<path d="M28.2306 22.18C26.7114 21.7416 24.644 21.6739 22.5649 21.6553V25.4122C23.0435 25.3492 23.3873 25.3095 23.7729 25.4308C26.5209 26.2983 27.4013 25.3655 28.8927 25.2629C29.5896 25.2139 30.909 25.4425 30.909 25.4425C30.909 25.4425 30.6 22.8656 28.2306 22.18Z" fill="#F0F8FD"/>
<path d="M22.0105 13.1455C16.6677 13.1455 12.2517 13.6889 12.7349 19.5352H11.2993C11.6873 9.88302 16.0962 8.00342 22.0105 8.00342C27.927 8.00342 32.7216 11.765 32.7216 19.5352H31.4788C31.8459 14.2742 26.3474 13.1455 22.0105 13.1455Z" fill="#F1F1F1"/>
<path d="M32.7211 19.5353C32.4865 23.607 34.5794 26.5034 34.6027 29.8988C34.6329 34.3646 31.7547 38.7815 22.0099 38.7815C11.7332 38.7815 8.81784 34.1734 9.01994 29.3275C9.15467 26.0836 11.2895 23.3459 11.2988 19.5353C11.2988 19.5353 12.6205 17.6651 12.7343 19.5353C12.9922 23.7749 17.3268 21.6528 21.9124 21.6528C26.8324 21.6528 30.8186 22.9517 31.4783 19.5353C31.6827 18.4813 32.7211 19.5353 32.7211 19.5353Z" fill="#F1F1F1"/>
<path d="M19.9448 24.6617C19.9448 25.5176 20.8252 26.2102 21.9124 26.2102C22.9995 26.2102 23.8799 25.5176 23.8799 24.6617C23.8799 23.8059 22.9995 23.1133 21.9124 23.1133C20.8252 23.1133 19.9448 23.8082 19.9448 24.6617Z" fill="#DA2535"/>
<path d="M13.6289 24.8875C13.6289 24.8875 14.6766 24.4187 16.1121 24.8105C17.3665 25.151 18.9067 25.8762 20.3028 25.4658C22.3981 24.8502 22.0868 22.8236 22.0868 22.8236C22.0868 22.8236 20.7674 21.3358 18.5164 21.3428C14.7462 21.3521 13.6289 24.8875 13.6289 24.8875Z" fill="#F1F1F1"/>
<path d="M30.3888 24.8875C30.3888 24.8875 29.3412 24.4187 27.9056 24.8105C26.6512 25.151 25.1111 25.8762 23.715 25.4658C21.6197 24.8502 21.9286 22.8236 21.9286 22.8236C21.9286 22.8236 23.2481 21.3358 25.499 21.3428C29.2738 21.3521 30.3888 24.8875 30.3888 24.8875Z" fill="#F1F1F1"/>
<path d="M19.2598 21.2235C19.2598 22.2426 20.4468 23.0682 21.9126 23.0682C23.3784 23.0682 24.5654 22.2426 24.5654 21.2235C24.5654 20.2044 23.3784 19.3789 21.9126 19.3789C20.4468 19.3789 19.2598 20.2068 19.2598 21.2235Z" fill="#F2937B"/>
<path d="M10.2327 15.5498C10.5347 16.0955 16.5233 14.2136 22.0101 14.111C27.8314 14.0014 33.6829 16.1445 34.2846 15.4496C35.453 14.097 33.892 9.87371 32.7212 8.95955C30.0057 6.83742 14.1446 7.35513 12.2281 8.55145C11.062 9.27671 9.43592 14.111 10.2327 15.5498Z" fill="#F1F1F1"/>
<path d="M10.4394 15.2C11.5661 14.7523 12.6532 14.1646 13.8054 13.7845C15.2851 13.2948 16.8113 13.0662 18.3631 12.9613C21.6872 12.7374 25.0671 12.875 28.3657 13.3461C29.9105 13.5676 31.432 13.8918 32.9675 14.1576C33.5366 14.2556 34.1499 14.2066 34.6958 14.0084C34.6934 14.6007 34.5726 15.1137 34.2823 15.4472C33.6806 16.1445 27.8291 13.999 22.0078 14.1086C16.5209 14.2136 10.5324 16.0932 10.2304 15.5475C10.1932 15.4775 10.1607 15.3982 10.1328 15.3143C10.2373 15.2793 10.3396 15.242 10.4394 15.2Z" fill="#F0F8FD"/>
<path opacity="0.3" d="M20.2954 20.2441C20.2954 20.6359 21.0202 20.9507 21.9122 20.9507C22.8042 20.9507 23.529 20.6335 23.529 20.2441C23.529 19.8523 22.8065 19.5352 21.9122 19.5352C21.0202 19.5352 20.2954 19.8523 20.2954 20.2441Z" fill="#F1F1F1"/>
<path d="M16.9253 18.2343C16.9253 18.8033 17.3852 19.2673 17.9544 19.2673C18.5212 19.2673 18.9834 18.8056 18.9834 18.2343C18.9834 17.6652 18.5235 17.2012 17.9544 17.2012C17.3876 17.2012 16.9253 17.6629 16.9253 18.2343Z" fill="#2F120C"/>
<path d="M25.9033 18.2343C25.9033 18.8033 26.3633 19.2673 26.9324 19.2673C27.5015 19.2673 27.9615 18.8056 27.9615 18.2343C27.9615 17.6652 27.5015 17.2012 26.9324 17.2012C26.3656 17.2012 25.9033 17.6629 25.9033 18.2343Z" fill="#2F120C"/>
<path d="M14.725 16.6551C15.2686 16.9676 17.0735 15.8365 19.0387 16.1094C19.9865 16.24 19.5893 14.456 19.0387 14.2787C17.3639 13.733 15.5799 14.1178 14.7087 15.2605C13.991 16.2003 14.1814 16.3426 14.725 16.6551Z" fill="#F1F1F1"/>
<path d="M29.1344 16.3914C28.5908 16.7039 26.7859 15.5729 24.8207 15.8457C23.8729 15.9763 24.2724 14.1923 24.8207 14.0151C26.4955 13.4694 28.2796 13.8542 29.1507 14.9968C29.8708 15.9367 29.678 16.0789 29.1344 16.3914Z" fill="#F1F1F1"/>
</g>
<defs>
<clipPath id="clip0_39341_766">
<rect width="35" height="38.7838" fill="white"/>
</clipPath>
</defs>
</svg>
