<svg width="80" height="16" viewBox="0 0 80 16" fill="none" xmlns="http://www.w3.org/2000/svg">
<path d="M8 3.61358L8.9584 6.36525L9.1337 6.86856H9.66667H12.5206L10.3106 8.62811L9.9174 8.9412L10.0575 9.42391L10.8685 12.2179L8.41984 10.5637L8 10.2801L7.58016 10.5637L5.13154 12.2179L5.9425 9.42391L6.08261 8.9412L5.68938 8.62811L3.47941 6.86856H6.33334H6.8663L7.0416 6.36525L8 3.61358Z" fill="#F9F9F9" stroke="#F9F9F9" stroke-width="1.5"/>
<path d="M24 3.61358L24.9584 6.36525L25.1337 6.86856H25.6667H28.5206L26.3106 8.62811L25.9174 8.9412L26.0575 9.42391L26.8685 12.2179L24.4198 10.5637L24 10.2801L23.5802 10.5637L21.1315 12.2179L21.9425 9.42391L22.0826 8.9412L21.6894 8.62811L19.4794 6.86856H22.3333H22.8663L23.0416 6.36525L24 3.61358Z" fill="#F9F9F9" stroke="#F9F9F9" stroke-width="1.5"/>
<path d="M40 3.61358L40.9584 6.36525L41.1337 6.86856H41.6667H44.5206L42.3106 8.62811L41.9174 8.9412L42.0575 9.42391L42.8685 12.2179L40.4198 10.5637L40 10.2801L39.5802 10.5637L37.1315 12.2179L37.9425 9.42391L38.0826 8.9412L37.6894 8.62811L35.4794 6.86856H38.3333H38.8663L39.0416 6.36525L40 3.61358Z" fill="#F9F9F9" stroke="#F9F9F9" stroke-width="1.5"/>
<path d="M56 3.61358L56.9584 6.36525L57.1337 6.86856H57.6667H60.5206L58.3106 8.62811L57.9174 8.9412L58.0575 9.42391L58.8685 12.2179L56.4198 10.5637L56 10.2801L55.5802 10.5637L53.1315 12.2179L53.9425 9.42391L54.0826 8.9412L53.6894 8.62811L51.4794 6.86856H54.3333H54.8663L55.0416 6.36525L56 3.61358Z" fill="#F9F9F9" stroke="#F9F9F9" stroke-width="1.5"/>
<path d="M72 3.61358L72.9584 6.36525L73.1337 6.86856H73.6667H76.5206L74.3106 8.62811L73.9174 8.9412L74.0575 9.42391L74.8685 12.2179L72.4198 10.5637L72 10.2801L71.5802 10.5637L69.1315 12.2179L69.9425 9.42391L70.0826 8.9412L69.6894 8.62811L67.4794 6.86856H70.3333H70.8663L71.0416 6.36525L72 3.61358Z" fill="#F9F9F9" stroke="#F9F9F9" stroke-width="1.5"/>
</svg>
