<svg width="23" height="20" viewBox="0 0 23 20" fill="none" xmlns="http://www.w3.org/2000/svg">
<path d="M6.61696 2.63184C6.32194 2.63184 6.09014 2.67399 5.92155 2.75828C5.76701 2.84257 5.65462 3.03223 5.58438 3.32726C5.52818 3.62228 5.50009 4.09291 5.50009 4.73916V6.80433C5.50009 7.33818 5.41579 7.80179 5.24721 8.19516C5.09267 8.57448 4.91004 8.88355 4.69931 9.12238C4.48857 9.36121 4.29189 9.54384 4.10926 9.67028C4.26379 9.78267 4.44643 9.95828 4.65716 10.1971C4.88194 10.4219 5.07862 10.7029 5.24721 11.04C5.41579 11.3632 5.50009 11.7284 5.50009 12.1358V14.6646C5.50009 15.2968 5.52818 15.7604 5.58438 16.0555C5.65462 16.3505 5.76701 16.5401 5.92155 16.6244C6.09014 16.7087 6.32194 16.7509 6.61696 16.7509H7.39667V19.3218H5.73189C5.33853 19.3218 4.94516 19.3148 4.55179 19.3007C4.17248 19.2867 3.82126 19.2094 3.49813 19.0689C3.17501 18.9425 2.91511 18.6966 2.71843 18.3314C2.53579 17.9801 2.44448 17.4674 2.44448 16.793V13.3159C2.44448 12.8945 2.38126 12.5011 2.25482 12.1358C2.12838 11.7565 1.93872 11.4475 1.68584 11.2086C1.43296 10.9698 1.11687 10.8504 0.737549 10.8504V8.40589C1.11687 8.39184 1.43296 8.27243 1.68584 8.04765C1.93872 7.80882 2.12838 7.50677 2.25482 7.1415C2.38126 6.76218 2.44448 6.36179 2.44448 5.94033V2.61077C2.44448 1.93643 2.53579 1.42365 2.71843 1.07243C2.90106 0.721207 3.14692 0.475353 3.45599 0.334865C3.77911 0.194377 4.13735 0.117109 4.53072 0.103059C4.92409 0.0749619 5.32448 0.0609131 5.73189 0.0609131H7.39667V2.63184H6.61696ZM22.3283 9.85994C22.3283 11.2929 22.1527 12.6346 21.8015 13.8849C21.4643 15.1353 21.0288 16.2451 20.495 17.2145C19.9611 18.1979 19.3921 19.0057 18.788 19.6379L16.3646 18.521C16.9125 17.8888 17.4042 17.1442 17.8397 16.2873C18.2753 15.4443 18.6195 14.489 18.8723 13.4213C19.1252 12.3396 19.2516 11.1524 19.2516 9.85994C19.2516 8.56745 19.1252 7.38735 18.8723 6.31965C18.6195 5.23789 18.2753 4.27555 17.8397 3.43262C17.4042 2.57565 16.9125 1.83809 16.3646 1.21994L18.788 0.081986C19.3921 0.714182 19.9611 1.52199 20.495 2.5054C21.0288 3.48882 21.4643 4.6057 21.8015 5.85604C22.1527 7.09233 22.3283 8.42696 22.3283 9.85994Z" fill="#00D2DF"/>
</svg>
