<svg width="24" height="24" viewBox="0 0 24 24" fill="none" xmlns="http://www.w3.org/2000/svg">
<path d="M14.6393 9.89935C13.6591 9.89935 12.7376 10.3155 12.0022 11.0682C11.269 10.3078 10.3581 9.89935 9.36026 9.89935C7.61801 9.89935 6.07894 11.1631 5.61761 12.9726C5.37587 13.9204 5.32531 15.429 6.4565 17.233C7.46687 18.8441 9.20227 20.3283 11.6144 21.6441C11.7344 21.7096 11.8666 21.7422 11.9991 21.7422C12.1314 21.7422 12.2639 21.7096 12.3838 21.6442C14.7966 20.3284 16.5326 18.8442 17.5434 17.2331C18.6751 15.4291 18.6247 13.9206 18.383 12.9728C17.9215 11.1631 16.3821 9.89935 14.6393 9.89935ZM11.999 20.0189C6.72631 17.006 6.96795 14.1787 7.17435 13.3695C7.44963 12.2897 8.36896 11.506 9.36015 11.506C10.1142 11.506 10.8074 11.9649 11.3118 12.7981C11.4573 13.0384 11.7179 13.1853 11.9989 13.1854C11.9989 13.1854 11.9989 13.1854 11.999 13.1854C12.28 13.1854 12.5406 13.0387 12.686 12.7984C13.1911 11.965 13.8846 11.506 14.6392 11.506C15.631 11.506 16.5507 12.2897 16.826 13.3695C17.0324 14.1786 17.2736 17.0058 11.999 20.0189Z" fill="#713FFF"/>
<path d="M8.53434 8.52201C10.2614 8.52201 11.6665 7.11704 11.6665 5.3901C11.6665 3.66295 10.2614 2.25787 8.53434 2.25787C6.80719 2.25787 5.40201 3.66305 5.40201 5.3901C5.40201 7.11704 6.80719 8.52201 8.53434 8.52201ZM8.53434 3.86453C9.37559 3.86453 10.0598 4.54896 10.0598 5.3901C10.0598 6.23113 9.37548 6.91535 8.53434 6.91535C7.6931 6.91535 7.00866 6.23113 7.00866 5.3901C7.00866 4.54886 7.69299 3.86453 8.53434 3.86453Z" fill="#713FFF"/>
<path d="M15.4662 8.52201C17.1932 8.52201 18.5983 7.11704 18.5983 5.3901C18.5983 3.66295 17.1932 2.25787 15.4662 2.25787C13.7392 2.25787 12.3341 3.66305 12.3341 5.3901C12.334 7.11704 13.739 8.52201 15.4662 8.52201ZM15.4662 3.86453C16.3073 3.86453 16.9917 4.54896 16.9917 5.3901C16.9917 6.23113 16.3073 6.91535 15.4662 6.91535C14.625 6.91535 13.9407 6.23113 13.9407 5.3901C13.9406 4.54886 14.625 3.86453 15.4662 3.86453Z" fill="#713FFF"/>
<path d="M2.89905 7.00714C1.30053 7.00714 0 8.30778 0 9.90651C0 11.505 1.30053 12.8054 2.89905 12.8054C4.49778 12.8054 5.79831 11.5049 5.79831 9.90651C5.79842 8.30778 4.49778 7.00714 2.89905 7.00714ZM2.89905 11.1988C2.18644 11.1988 1.60666 10.6191 1.60666 9.90651C1.60666 9.1938 2.18644 8.6139 2.89905 8.6139C3.61176 8.6139 4.19166 9.1938 4.19166 9.90651C4.19176 10.6191 3.61187 11.1988 2.89905 11.1988Z" fill="#713FFF"/>
<path d="M21.1007 7.00714C19.5021 7.00714 18.2017 8.30778 18.2017 9.9064C18.2017 11.5049 19.5022 12.8053 21.1007 12.8053C22.6995 12.8053 24 11.5048 24 9.9064C24 8.30778 22.6995 7.00714 21.1007 7.00714ZM21.1007 11.1988C20.3881 11.1988 19.8083 10.619 19.8083 9.90651C19.8083 9.1938 20.3881 8.6139 21.1007 8.6139C21.8135 8.6139 22.3933 9.1938 22.3933 9.90651C22.3933 10.6191 21.8135 11.1988 21.1007 11.1988Z" fill="#713FFF"/>
</svg>
